<?xml version="1.0" standalone="no"?>
<!DOCTYPE svg PUBLIC "-//W3C//DTD SVG 20010904//EN"
 "http://www.w3.org/TR/2001/REC-SVG-20010904/DTD/svg10.dtd">
<svg version="1.0" xmlns="http://www.w3.org/2000/svg"
 width="653.000000pt" height="366.000000pt" viewBox="0 0 653.000000 366.000000"
 preserveAspectRatio="xMidYMid meet">

<g transform="translate(0.000000,366.000000) scale(0.100000,-0.100000)"
fill="#000000" stroke="none">
<path d="M0 3309 l0 -351 33 7 c17 4 32 8 32 9 0 0 5 10 11 21 17 32 70 32 99
1 13 -14 29 -26 35 -26 7 0 10 -6 7 -12 -2 -7 -11 -12 -19 -10 -21 3 -48 -29
-30 -36 10 -3 10 -7 2 -17 -6 -8 -18 -11 -25 -9 -8 3 -24 -1 -37 -10 -12 -9
-34 -16 -48 -16 -15 0 -34 -6 -43 -13 -16 -11 -17 -43 -15 -387 l3 -375 28 -3
c35 -4 34 -17 -3 -39 -25 -14 -30 -24 -30 -55 0 -43 9 -47 36 -17 31 34 54 43
79 29 19 -10 29 -10 53 3 20 9 34 11 40 5 5 -5 30 -10 55 -11 35 -1 53 5 81
27 20 15 36 34 36 42 0 8 6 17 14 20 8 3 17 21 20 39 4 19 14 38 22 43 15 8
15 10 0 15 -9 4 -16 12 -16 18 0 8 5 8 16 -2 12 -10 17 -10 23 0 20 31 55 39
112 23 30 -8 63 -14 73 -14 35 2 78 -28 73 -49 -6 -21 -5 -21 96 -22 40 0 54
-3 45 -9 -9 -7 -6 -8 10 -5 19 5 21 3 11 -9 -9 -11 -6 -16 17 -24 17 -7 30 -7
33 -1 8 13 108 44 124 38 7 -2 28 4 47 14 19 10 31 19 25 19 -5 1 -1 5 10 10
19 8 19 9 -3 9 -15 1 -26 9 -29 22 -5 17 -12 20 -35 17 -21 -4 -33 0 -41 14
-7 10 -23 18 -39 18 -15 0 -30 5 -34 11 -5 9 9 10 52 4 66 -8 77 -12 69 -26
-7 -10 10 -11 43 -3 25 7 30 33 7 35 -35 3 -40 6 -37 18 1 8 -4 11 -15 7 -10
-3 -92 -8 -183 -11 -90 -4 -167 -8 -171 -11 -4 -2 -44 -8 -90 -14 -46 -6 -93
-12 -104 -15 -11 -2 -49 -8 -84 -14 -35 -5 -69 -15 -74 -20 -6 -6 -30 -11 -54
-11 -23 0 -53 -5 -67 -11 -27 -13 -120 -4 -111 11 2 4 21 11 41 14 47 9 84 27
84 40 0 19 217 75 239 62 3 -2 51 5 106 16 55 10 155 23 223 28 68 5 127 12
133 15 16 10 -2 27 -22 22 -33 -9 -21 9 16 23 19 7 36 19 39 27 7 16 36 17 36
1 0 -6 3 -9 6 -5 3 3 0 15 -8 26 -8 12 -18 18 -21 15 -4 -4 -9 1 -13 10 -3 9
-10 13 -16 10 -5 -3 -16 2 -23 12 -9 11 -14 14 -15 7 0 -7 -12 -14 -27 -14
-17 -1 -21 -3 -10 -6 9 -2 17 -9 17 -14 0 -5 12 -9 26 -9 16 0 24 -5 21 -12
-4 -14 -67 -18 -102 -7 -26 8 -45 1 -45 -17 0 -8 -4 -14 -10 -14 -9 0 -14 14
-11 33 0 4 -3 7 -9 7 -5 0 -9 -10 -7 -22 2 -20 -3 -23 -36 -24 -22 -1 -47 6
-59 16 -18 14 -19 19 -8 39 6 13 7 21 2 17 -6 -3 -18 2 -28 11 -10 10 -21 19
-26 19 -4 1 -11 2 -14 3 -4 0 -1 8 6 16 10 12 10 19 2 27 -9 9 -12 8 -12 -3 0
-15 -34 -49 -49 -49 -5 0 -16 -11 -25 -25 -9 -14 -25 -25 -36 -25 -11 0 -20
-7 -20 -15 0 -17 -25 -20 -35 -5 -3 6 -15 10 -26 10 -25 0 -25 16 1 23 11 3
20 1 20 -3 0 -4 8 -6 18 -3 10 2 19 11 19 20 0 12 -13 14 -81 9 -45 -3 -93 -7
-109 -9 -27 -4 -36 6 -17 18 8 5 7 11 0 20 -8 10 -8 19 0 35 18 33 7 45 -42
45 -39 0 -44 2 -40 18 2 10 10 16 17 13 21 -8 26 6 8 19 -14 10 -15 16 -6 27
7 8 10 23 7 34 -4 14 7 34 35 66 35 39 47 46 90 52 28 4 53 11 56 16 10 15 35
12 35 -5 0 -11 12 -14 50 -14 27 1 56 -4 64 -10 11 -9 19 -9 35 1 12 7 21 16
21 19 0 4 10 9 22 12 26 7 48 -8 48 -33 0 -22 54 -52 67 -39 13 13 88 -4 89
-19 1 -7 2 -20 3 -29 1 -14 4 -14 24 4 27 25 90 38 117 23 11 -6 25 -20 31
-32 9 -17 8 -23 -5 -30 -25 -14 -19 -29 9 -22 18 4 27 1 31 -10 5 -13 18 -15
73 -11 58 4 195 32 274 55 30 9 94 2 102 -11 5 -7 -34 -15 -109 -21 -37 -4
-48 -28 -12 -28 14 0 26 -4 26 -9 0 -13 -53 -22 -153 -27 -49 -2 -93 -6 -98
-10 -6 -3 -32 -7 -58 -8 -27 -1 -56 -8 -65 -15 -15 -13 -15 -16 5 -38 25 -26
46 -29 74 -10 11 7 36 14 55 16 19 1 42 2 50 3 8 1 26 0 39 0 20 -2 22 -4 11
-18 -8 -8 -28 -21 -47 -29 -18 -8 -33 -21 -33 -29 0 -12 -5 -12 -29 -3 -33 12
-61 4 -61 -18 0 -11 6 -15 18 -11 10 4 27 -1 38 -10 19 -15 19 -15 -2 -11 -12
3 -28 1 -35 -4 -8 -4 -19 -3 -27 3 -10 9 -20 4 -43 -21 -33 -37 -35 -41 -13
-41 8 0 12 5 8 11 -4 8 1 7 15 -1 12 -6 34 -9 49 -5 15 3 72 8 127 11 55 2
118 7 140 10 73 8 117 7 124 -5 5 -7 15 -9 26 -5 14 6 16 4 10 -6 -5 -8 -4
-11 3 -6 6 3 13 2 17 -4 3 -5 19 -10 34 -10 29 0 79 -29 51 -30 -8 0 -55 -5
-105 -11 -49 -6 -109 -11 -133 -11 -29 0 -45 -5 -51 -16 -9 -15 -11 -15 -29 1
-14 13 -27 16 -48 11 -26 -7 -24 -8 27 -21 30 -8 61 -16 69 -18 8 -1 14 -10
14 -19 -1 -10 6 -16 21 -16 13 0 25 -5 27 -11 2 -7 19 -5 48 6 25 9 61 20 80
24 51 12 145 67 144 86 -2 14 2 16 36 19 8 1 51 5 95 10 74 7 107 10 220 20
159 14 264 28 350 45 55 11 129 25 165 30 36 6 121 20 190 31 163 27 249 39
280 39 l25 0 -25 -14 c-23 -14 -17 -15 63 -9 57 5 87 3 87 -3 0 -14 -35 -23
-92 -23 -25 0 -48 -5 -50 -10 -2 -6 -59 -21 -128 -35 -185 -37 -204 -45 -82
-38 72 4 102 2 102 -6 0 -7 20 -11 53 -11 66 0 350 35 397 50 19 5 46 10 60 9
20 -1 17 -4 -15 -14 -40 -13 -40 -13 -9 -14 34 -1 296 33 384 49 30 6 116 15
190 20 74 5 209 16 300 25 91 8 174 14 185 14 19 -1 -25 -8 -280 -43 -230 -32
-474 -68 -580 -86 l-110 -19 165 5 c156 5 422 23 645 44 125 11 187 13 670 11
215 -1 402 -4 417 -9 50 -13 34 -24 -42 -28 -83 -5 -312 -20 -520 -34 -116 -7
-253 -29 -266 -43 -6 -6 248 -20 319 -18 32 1 66 -3 75 -8 15 -9 14 -11 -8
-20 -21 -9 -16 -11 35 -10 33 1 74 0 90 -1 l30 -2 -35 -9 c-19 -5 -57 -6 -85
-3 -27 3 -136 11 -242 17 l-192 12 -128 -87 c-178 -120 -225 -150 -217 -135 6
9 5 9 -8 0 -8 -7 -19 -9 -23 -5 -5 4 -5 2 -1 -5 9 -16 -13 -28 -27 -14 -16 16
-27 14 -27 -5 0 -11 -6 -14 -22 -10 -13 3 -8 -1 10 -9 17 -8 32 -16 32 -18 0
-1 -14 -3 -32 -3 -18 -1 -38 -9 -46 -20 -12 -16 -14 -16 -9 -2 5 14 0 16 -28
14 -21 -2 -33 1 -32 7 1 6 -7 12 -18 14 -11 1 -14 0 -7 -3 22 -10 13 -21 -18
-22 -17 0 -28 4 -25 9 4 5 -1 9 -10 9 -9 0 -13 -4 -10 -10 7 -11 -38 -8 -69 5
-11 5 -32 3 -47 -2 -23 -9 -29 -9 -29 3 0 19 -69 19 -95 0 -13 -9 -28 -11 -48
-5 -16 5 -37 5 -46 0 -20 -11 -83 -2 -75 11 3 5 -38 9 -103 8 -59 -1 -139 2
-178 5 -56 4 -65 3 -45 -5 l25 -11 -35 -15 c-23 -10 -36 -11 -38 -5 -2 6 -14
8 -28 5 -17 -4 -24 -2 -24 9 0 10 -16 16 -52 21 -46 5 -55 3 -67 -14 -13 -20
-32 -27 -30 -12 4 23 -7 27 -68 28 -38 1 -92 9 -122 17 -55 17 -57 17 -135
-21 -5 -3 -6 0 -3 5 8 13 -92 7 -275 -18 -49 -6 -88 -16 -88 -22 0 -5 -5 -5
-13 2 -10 8 -17 7 -25 -1 -7 -7 -12 -8 -12 -2 0 5 -34 9 -76 9 -42 0 -78 3
-80 7 -6 9 -108 1 -166 -12 -27 -7 -60 -10 -74 -7 -13 2 -27 0 -30 -5 -3 -5
-25 -8 -48 -7 -23 2 -46 0 -51 -3 -6 -3 -21 -5 -35 -4 -14 1 -33 -4 -43 -13
-9 -8 -20 -12 -23 -8 -3 3 -19 1 -35 -5 -23 -8 -34 -7 -47 5 -9 8 -26 18 -38
21 -25 8 -56 -2 -49 -15 11 -16 -47 -22 -87 -8 -35 11 -44 11 -67 -2 -19 -11
-34 -13 -51 -7 -12 5 -32 5 -44 1 -27 -9 -88 -4 -101 8 -13 13 -21 11 -40 -8
-13 -13 -19 -13 -25 -4 -6 10 -12 10 -28 2 -25 -13 -55 -15 -48 -2 7 10 -17
21 -42 20 -11 0 -12 -2 -4 -6 6 -2 9 -9 6 -14 -3 -6 -11 -6 -20 2 -7 6 -22 8
-31 5 -16 -5 -16 -4 1 9 17 13 16 14 -18 8 -31 -5 -35 -3 -30 11 5 12 1 16
-17 14 -30 -4 -32 22 -4 37 18 9 20 15 13 50 -12 56 -23 61 -42 21 -19 -40
-45 -47 -53 -15 -4 15 -11 19 -27 15 -11 -3 -24 -6 -28 -6 -5 0 -8 -6 -8 -14
0 -14 -29 -31 -37 -22 -6 6 19 75 26 74 3 0 16 3 28 7 19 6 21 10 12 27 -8 15
-13 17 -18 9 -5 -7 -14 -11 -21 -9 -8 2 -15 -4 -16 -12 -4 -39 -16 -58 -35
-53 -10 3 -19 0 -19 -6 0 -6 6 -11 13 -11 6 0 3 -8 -9 -18 -12 -9 -30 -32 -40
-50 -19 -33 -55 -53 -62 -33 -4 12 -42 15 -42 3 0 -4 -14 -12 -31 -17 -17 -6
-30 -14 -29 -19 2 -13 -21 -25 -36 -19 -7 2 -10 11 -7 19 6 17 -1 18 -27 2
-16 -10 -24 -10 -40 0 -27 16 -59 15 -66 -3 -8 -19 -24 -19 -24 0 0 8 -9 15
-20 15 -11 0 -20 5 -20 11 0 6 -7 9 -16 7 -8 -2 -14 -6 -12 -10 2 -4 -7 -15
-19 -23 l-23 -16 0 -950 0 -949 228 1 c129 1 216 4 202 9 -23 7 -23 8 -3 9 12
1 25 -3 28 -9 8 -13 141 -13 166 0 13 7 19 7 19 0 0 -14 43 -13 58 2 8 8 15 8
24 1 18 -14 148 -17 148 -4 0 6 5 11 11 11 5 0 7 -5 4 -10 -4 -7 34 -10 117
-8 99 2 122 6 120 17 -3 14 27 13 143 -2 17 -3 23 -2 15 0 -52 17 -46 50 8 46
l37 -4 -30 15 c-26 13 -27 14 -8 15 12 1 25 5 28 11 3 5 21 10 38 11 33 1 30
3 -15 13 -16 4 -28 13 -28 21 0 16 4 17 60 17 22 0 27 1 13 5 -26 5 -30 21 -8
29 22 9 18 22 -7 27 l-23 4 23 2 c12 0 22 6 22 11 0 6 10 10 23 10 44 0 287
-35 287 -41 0 -15 -99 -20 -184 -10 -93 11 -134 7 -49 -4 26 -4 55 -9 63 -12
23 -8 -16 -21 -70 -24 -32 -1 -12 -6 72 -18 125 -18 156 -28 86 -29 -24 0 -68
-4 -98 -9 l-55 -9 65 -7 c128 -16 147 -63 21 -54 l-76 6 63 -12 c35 -7 60 -15
56 -19 -4 -4 406 -8 910 -8 670 0 915 3 910 11 -5 8 -1 8 14 0 23 -12 923 -16
935 -4 4 3 -3 11 -16 18 -17 8 -22 19 -22 50 0 22 4 50 9 63 7 22 7 23 -77 21
-73 -1 -89 2 -114 21 -22 16 -29 28 -25 45 2 13 -4 34 -14 48 l-18 24 -13 -25
c-13 -25 -9 -47 8 -37 5 3 6 -1 3 -9 -3 -9 -12 -16 -20 -16 -19 0 -18 -16 2
-24 10 -4 13 -2 8 6 -4 7 -3 8 4 4 7 -4 12 -16 12 -28 0 -17 -2 -19 -16 -7
-12 10 -17 10 -23 0 -11 -18 -102 -7 -117 13 -13 18 -49 21 -59 6 -7 -12 -54
10 -74 34 -11 13 -11 16 2 16 9 0 19 -4 22 -10 3 -5 11 -10 18 -10 6 0 -2 10
-19 22 -20 14 -32 31 -32 46 0 26 -18 43 -38 35 -7 -3 -15 8 -19 26 -4 17 -11
29 -16 25 -5 -3 -9 4 -9 15 0 12 -6 21 -12 21 -9 0 -10 2 -2 8 12 7 4 44 -9
43 -22 -3 -27 1 -27 19 0 16 7 20 34 20 30 0 33 3 32 27 -1 21 4 28 16 27 10
-1 15 2 12 8 -3 5 -14 6 -24 3 -11 -3 -30 1 -44 10 -23 15 -25 15 -39 -5 -17
-24 -47 -17 -47 11 0 22 11 24 28 7 19 -19 15 8 -5 43 -19 32 -31 36 -39 14
-4 -8 -10 -15 -15 -15 -4 0 -6 7 -3 15 7 17 -11 21 -21 5 -9 -15 -37 9 -31 27
3 7 0 13 -7 13 -7 0 -20 9 -30 20 -21 25 -14 64 17 86 18 12 19 16 6 24 -8 5
-19 8 -25 6 -5 -1 -18 10 -27 26 -10 15 -24 28 -31 28 -7 0 -22 10 -33 23 -11
12 -31 29 -44 39 -24 16 -24 17 -6 31 17 12 17 14 2 20 -9 4 -16 14 -16 22 0
9 -4 13 -10 10 -5 -3 -10 3 -10 14 0 12 -6 21 -14 21 -22 0 -28 17 -15 42 9
16 9 23 0 26 -6 2 -11 8 -11 14 0 6 -8 17 -17 25 -13 10 -14 16 -6 19 13 6 6
34 -13 49 -19 15 -35 63 -24 70 6 4 4 13 -6 22 -11 11 -12 18 -4 23 8 5 6 11
-5 20 -8 7 -15 21 -15 32 0 15 3 17 19 8 25 -13 61 -13 61 0 0 6 -13 10 -29
10 -16 0 -34 7 -41 15 -7 8 -18 15 -26 15 -7 0 -15 4 -18 9 -6 9 29 7 57 -4
10 -4 17 -3 17 5 0 6 -4 8 -10 5 -5 -3 -10 -2 -10 3 0 5 -10 13 -22 16 -22 7
-22 7 -3 16 l20 9 -20 1 -20 1 20 10 c16 7 14 9 -12 6 -18 -2 -30 0 -28 4 3 4
21 9 40 11 27 3 34 1 30 -10 -3 -10 1 -12 16 -7 14 5 19 3 15 -4 -5 -7 -1 -9
8 -5 20 8 21 20 2 27 -7 3 -16 17 -18 31 -5 23 -3 26 16 21 15 -5 17 -4 7 3
-24 17 -2 31 45 30 29 0 48 -6 51 -15 7 -18 1 -24 -26 -26 -21 -1 -21 -2 -5
-14 10 -7 21 -13 24 -13 3 0 6 -9 7 -20 1 -13 -4 -20 -15 -20 -15 -1 -15 -2 2
-15 11 -8 34 -15 50 -14 29 0 29 1 9 9 -13 5 -23 12 -23 14 0 3 7 3 15 0 10
-4 15 0 15 11 0 11 -5 15 -16 11 -8 -3 -12 -2 -9 4 3 6 14 10 23 11 13 0 11 3
-5 9 -21 9 -30 50 -10 50 4 0 6 4 3 9 -6 10 121 20 133 11 3 -3 7 -17 7 -32 1
-19 -4 -28 -15 -29 -12 0 -11 -2 4 -9 l20 -9 -20 0 c-11 0 -28 6 -38 14 -20
15 -51 9 -41 -7 4 -7 9 -7 13 0 4 6 15 3 30 -9 18 -15 20 -19 7 -19 -10 0 -15
-4 -11 -10 3 -5 12 -7 20 -4 7 3 22 1 32 -4 10 -5 27 -6 37 -2 19 6 19 7 0 15
-16 7 -12 10 20 14 22 3 41 12 44 19 3 10 -4 12 -32 7 -24 -5 -36 -3 -36 4 0
6 5 11 10 11 6 0 10 4 10 10 0 5 -7 7 -16 3 -11 -4 -15 -1 -12 13 5 29 17 34
90 34 66 0 68 -1 66 -25 -1 -14 -6 -25 -10 -25 -4 0 -8 -5 -8 -11 0 -7 -8 -18
-17 -26 -17 -13 -17 -13 2 -11 12 2 19 -2 18 -9 -2 -7 6 -13 18 -13 11 0 17 4
14 10 -4 6 7 8 27 5 26 -4 29 -3 13 4 -20 10 -9 15 25 12 13 -2 13 0 1 8 -9 6
-21 6 -32 0 -30 -15 -35 -10 -10 10 l24 19 -21 6 c-13 4 -22 16 -22 27 0 17 8
19 75 19 81 0 86 -4 61 -51 -9 -18 -10 -26 -2 -26 45 1 41 -8 -9 -17 -58 -12
-59 -13 -23 -17 20 -3 34 -1 31 3 -2 5 6 6 20 3 27 -7 46 19 23 32 -9 6 -10
17 -4 41 8 29 12 32 47 32 21 0 52 3 69 6 28 6 30 4 28 -23 -4 -46 -13 -55
-39 -41 -12 6 -38 13 -57 14 -19 1 -27 0 -17 -3 9 -2 17 -9 17 -14 0 -5 11 -9
25 -9 14 0 25 -4 25 -10 0 -5 11 -10 25 -10 22 0 24 -3 16 -18 -8 -16 -3 -20
35 -31 24 -7 42 -17 39 -21 -7 -11 15 -18 76 -26 35 -5 46 -10 37 -16 -10 -7
-8 -8 7 -7 35 3 46 -1 39 -12 -4 -7 5 -10 27 -8 64 4 73 1 58 -18 -12 -15 -12
-16 4 -10 10 4 26 7 35 7 15 0 15 2 2 10 -11 7 -5 8 20 4 46 -8 150 -44 173
-59 17 -12 16 -13 -7 -17 -14 -3 -27 0 -29 6 -2 6 -28 11 -60 11 -33 0 -50 -3
-41 -8 33 -18 11 -24 -26 -6 -21 10 -55 21 -75 24 -19 2 -40 7 -45 10 -5 3
-35 10 -67 16 -32 5 -66 13 -77 16 -11 3 -16 1 -12 -5 3 -6 29 -13 56 -17 28
-4 50 -10 50 -13 0 -4 14 -8 31 -8 17 -1 34 -6 38 -11 3 -6 26 -17 51 -25 l45
-15 -60 0 c-33 1 -63 5 -67 11 -8 12 -60 -13 -52 -26 3 -4 17 -8 32 -8 32 -1
67 -24 58 -39 -4 -6 -20 -8 -36 -4 -17 3 -30 1 -30 -4 0 -13 69 -33 114 -33
26 0 35 -4 30 -12 -5 -7 -3 -8 5 -4 7 5 20 2 29 -6 35 -28 64 -39 85 -32 12 3
18 3 14 -2 -9 -9 59 -45 76 -39 33 10 81 14 69 6 -10 -6 -6 -11 17 -19 17 -6
46 -27 66 -46 20 -20 42 -36 50 -36 7 0 22 -11 33 -25 11 -14 27 -25 36 -25 9
0 19 -7 22 -15 4 -8 12 -15 20 -15 8 0 11 6 8 15 -4 8 -12 15 -18 15 -7 0 -21
7 -32 15 -16 13 -16 14 -1 9 9 -3 17 -2 17 4 0 12 -29 24 -41 16 -5 -3 -9 -1
-9 5 0 5 -16 15 -35 21 -30 10 -34 14 -24 26 10 12 8 18 -7 29 -17 13 -17 14
-2 15 9 0 20 -4 23 -10 3 -5 14 -10 23 -10 10 0 25 -9 35 -20 9 -11 26 -20 37
-20 11 0 27 -11 36 -25 14 -21 19 -23 31 -13 13 10 19 8 33 -10 19 -23 40 -29
40 -12 0 5 12 13 26 16 15 4 21 9 15 14 -15 9 -4 38 17 43 10 2 5 3 -10 2 -16
-1 -28 3 -28 9 0 6 -4 4 -10 -4 -6 -9 -5 -17 3 -22 19 -13 -85 -3 -110 10 -12
7 -28 9 -37 6 -9 -3 -19 3 -26 15 -6 12 -20 21 -30 21 -11 0 -20 4 -20 9 0 10
-49 22 -92 23 -15 1 -25 5 -22 9 3 5 -3 6 -12 2 -13 -5 -16 -3 -11 9 4 12 -3
19 -24 27 -16 6 -28 7 -25 3 3 -5 1 -14 -4 -22 -7 -11 -14 -12 -34 -2 -17 8
-26 8 -26 1 0 -6 -5 -7 -11 -3 -8 5 -6 10 5 16 26 15 19 27 -26 49 -42 19 -42
19 -9 14 18 -3 38 -5 43 -5 5 0 7 -4 3 -9 -3 -6 11 -13 32 -16 73 -11 113 -26
113 -41 0 -12 9 -13 49 -8 41 5 56 3 84 -15 19 -11 44 -21 56 -21 12 0 21 -6
21 -15 0 -17 6 -18 35 -5 16 7 17 9 3 9 -9 1 -18 6 -20 11 -2 6 -21 17 -43 25
-22 8 -36 14 -32 15 5 0 1 7 -8 16 -8 9 -22 13 -30 10 -13 -5 -16 -2 -15 19 0
7 -147 85 -180 95 -24 8 -24 8 7 9 38 1 65 -8 57 -20 -3 -5 4 -9 16 -9 11 0
40 -9 62 -20 23 -11 47 -20 54 -20 7 0 15 -8 19 -19 4 -13 22 -22 65 -30 33
-7 60 -16 60 -20 0 -5 10 -9 22 -10 13 0 40 -1 61 -2 37 -1 54 -19 17 -19 -11
0 -20 -4 -20 -10 0 -5 5 -10 11 -10 5 0 7 -5 3 -11 -4 -6 1 -10 12 -8 11 1 27
-1 37 -6 9 -4 25 -4 35 1 9 4 20 6 25 6 4 -1 7 1 7 6 0 8 -49 32 -67 32 -7 0
-13 5 -13 10 0 6 12 8 28 4 21 -4 24 -3 12 5 -8 6 -32 11 -53 11 -21 0 -56 9
-78 21 -23 11 -55 21 -72 21 -34 0 -110 45 -101 59 3 5 -10 9 -28 10 -31 1
-32 1 -8 9 23 8 23 8 -8 9 -34 1 -72 16 -72 29 0 4 18 7 39 7 22 1 37 -3 35
-7 -6 -9 23 -12 74 -9 18 2 38 -2 45 -7 7 -5 39 -15 72 -22 70 -14 101 -28 89
-40 -5 -5 -46 2 -94 15 -46 14 -95 25 -109 25 l-25 0 22 -20 c13 -12 28 -17
38 -13 13 5 15 3 9 -7 -6 -10 -4 -12 7 -7 9 3 27 -1 41 -8 38 -19 86 -29 137
-26 25 2 42 -1 38 -5 -4 -4 -22 -7 -40 -6 -23 1 -28 -2 -18 -8 8 -6 29 -10 45
-10 17 0 35 -4 40 -9 6 -5 30 -12 56 -15 43 -6 45 -6 45 19 0 14 -6 25 -13 25
-6 0 -16 6 -20 14 -4 7 -20 15 -35 18 -15 3 -25 1 -22 -3 9 -16 -54 -9 -70 7
-20 19 -20 24 0 24 8 0 12 -4 9 -10 -4 -6 6 -10 22 -9 25 0 26 1 8 9 -17 7
-15 9 10 8 37 -1 85 -17 85 -29 0 -5 12 -9 28 -9 15 0 35 -9 44 -19 11 -13 24
-18 39 -14 22 6 22 7 4 14 -35 13 -49 20 -85 39 -32 17 -33 19 -10 19 14 -1
36 -4 50 -8 16 -5 31 -3 40 5 13 11 23 11 55 0 58 -19 128 -29 120 -16 -3 5
-19 10 -35 10 -37 0 -80 16 -80 30 0 7 14 9 38 5 50 -9 102 -27 102 -36 0 -4
14 -10 31 -14 37 -8 80 11 77 34 -4 22 -24 29 -80 30 -26 1 -50 6 -54 12 -8
13 116 2 131 -12 5 -5 18 -9 30 -9 11 0 27 -5 35 -10 10 -7 3 -8 -25 -5 -22 2
-31 2 -21 -1 15 -5 16 -8 5 -14 -11 -7 -10 -10 4 -16 10 -3 39 3 67 15 37 16
55 19 68 12 15 -9 15 -10 1 -11 -18 0 -32 -37 -18 -46 14 -8 10 -24 -6 -24 -8
0 -15 -4 -15 -10 0 -11 30 -13 54 -4 9 3 13 10 10 15 -3 5 1 9 8 9 10 0 10 2
-1 9 -10 7 -10 10 -1 16 12 8 32 -13 24 -26 -2 -4 6 -7 19 -8 31 -1 124 -18
112 -20 -31 -7 -63 -7 -95 0 -41 10 -81 2 -59 -12 27 -17 -22 -23 -51 -6 -15
9 -31 13 -35 9 -5 -4 -6 1 -2 10 6 17 -20 35 -32 22 -3 -4 0 -9 7 -11 20 -8
14 -22 -8 -16 -27 7 -25 -5 3 -17 l22 -9 -22 0 c-28 -1 -29 -9 -5 -27 15 -13
15 -14 -8 -11 -14 1 -32 11 -41 21 -17 20 -15 26 29 72 11 12 11 14 -2 14 -9
0 -16 -5 -16 -11 0 -6 -6 -9 -13 -6 -8 3 -20 1 -28 -4 -11 -7 -11 -9 4 -9 16
0 16 -2 3 -22 -8 -13 -13 -32 -11 -43 2 -11 4 -24 4 -28 1 -5 5 -5 11 -2 6 3
7 -1 4 -9 -3 -9 -12 -16 -20 -16 -8 0 -14 -6 -14 -14 0 -22 -40 -31 -58 -13
-13 14 -12 16 17 24 17 4 30 13 29 18 -2 6 -7 9 -13 7 -5 -2 -2 5 8 16 9 10
17 22 17 25 0 13 -28 7 -33 -7 -3 -8 -22 -14 -52 -14 -49 -1 -65 -7 -65 -23 0
-6 4 -7 10 -4 6 3 10 1 10 -4 0 -6 -10 -11 -22 -11 -17 0 -19 -3 -10 -12 13
-13 74 -19 66 -6 -3 4 -1 8 5 8 6 0 9 -13 8 -29 -2 -29 -3 -29 -25 -15 -16 11
-36 13 -73 8 -32 -4 -46 -10 -37 -15 7 -4 23 -6 35 -2 14 3 23 1 23 -6 0 -6 9
-11 20 -11 16 0 20 -7 20 -30 0 -16 -5 -30 -11 -30 -5 0 -8 -4 -5 -8 3 -5 21
-8 40 -7 26 0 36 -4 40 -18 3 -13 0 -17 -11 -13 -8 3 -39 6 -69 6 -33 0 -54 4
-54 11 0 7 10 9 25 7 19 -4 23 -2 15 7 -5 6 -7 15 -3 19 30 30 -7 58 -76 59
-25 0 -38 2 -28 4 21 6 12 23 -12 23 -10 0 -30 11 -45 25 -15 14 -34 25 -43
25 -9 0 -13 6 -10 14 4 10 0 12 -14 9 -24 -7 -35 -23 -16 -23 8 0 22 -9 32
-20 10 -11 31 -24 47 -28 15 -4 28 -11 29 -17 1 -22 29 -40 61 -40 29 0 58
-14 58 -28 0 -3 -16 -7 -36 -9 -24 -3 -38 0 -41 9 -6 16 -51 13 -58 -5 -2 -7
0 -10 5 -7 6 3 13 -1 16 -9 3 -9 10 -14 14 -11 4 3 10 -2 13 -9 4 -9 -1 -17
-11 -19 -9 -3 -1 -5 18 -6 23 -1 39 -8 47 -20 8 -13 19 -18 32 -14 12 3 36 -4
56 -16 40 -23 49 -26 40 -11 -3 6 1 7 9 4 20 -8 21 -24 2 -24 -8 0 -18 -4 -21
-10 -3 -5 0 -7 8 -4 8 3 18 1 22 -5 3 -6 0 -11 -9 -11 -8 0 -16 -5 -18 -12 -8
-23 -30 4 -23 29 5 22 3 24 -12 18 -40 -15 -55 -14 -60 5 -5 20 -33 28 -33 10
0 -5 -4 -10 -10 -10 -5 0 -9 5 -7 12 1 7 -14 15 -35 18 -35 6 -36 6 -27 -16 5
-14 4 -26 -1 -29 -6 -4 -10 -1 -10 4 0 6 -7 11 -15 11 -8 0 -15 7 -15 16 0 8
5 12 10 9 6 -3 10 -2 10 3 0 6 -7 13 -16 16 -10 4 -13 2 -8 -6 5 -7 -1 -9 -20
-6 -14 3 -29 2 -31 -2 -3 -5 -13 -6 -24 -3 -10 2 -25 -3 -35 -12 -22 -22 -22
2 1 27 9 10 12 18 7 19 -53 3 -77 9 -91 20 -12 10 -14 10 -9 1 4 -6 2 -12 -3
-12 -6 0 -11 5 -11 10 0 6 -10 10 -22 10 -22 -1 -23 -1 -4 -15 11 -8 15 -15 9
-15 -6 0 -19 -3 -29 -7 -13 -5 -15 -3 -9 7 5 9 4 11 -3 6 -7 -4 -12 -3 -12 3
0 5 6 12 13 14 9 4 8 8 -3 16 -17 12 -142 52 -147 47 -2 -2 -1 -11 3 -20 4
-12 15 -15 40 -12 20 3 32 1 29 -5 -4 -5 1 -12 9 -15 9 -3 16 -12 16 -20 0 -8
9 -14 19 -14 10 0 22 -7 25 -16 4 -9 9 -14 13 -11 3 4 13 2 20 -5 8 -6 37 -11
64 -9 38 2 49 -1 49 -12 0 -8 14 -20 30 -26 25 -8 32 -7 37 4 9 25 20 16 18
-15 -1 -25 2 -30 20 -30 11 0 26 -5 33 -12 17 -17 28 -2 12 17 -14 16 -3 20
19 6 7 -5 11 -13 8 -18 -4 -6 5 -15 19 -22 32 -14 32 -14 30 5 0 9 6 19 14 22
12 4 13 2 3 -10 -8 -9 -9 -18 -3 -24 18 -18 -9 -37 -60 -42 l-53 -5 7 27 c6
24 4 26 -23 26 -16 0 -33 5 -36 11 -4 6 -13 8 -20 5 -7 -2 -16 2 -19 10 -6 15
-36 20 -36 6 0 -13 -44 -9 -58 5 -12 11 -12 16 0 31 12 15 11 16 -4 4 -14 -12
-21 -11 -40 2 -28 20 -68 21 -93 2 -18 -13 -18 -15 14 -34 22 -13 46 -19 65
-17 23 3 35 -1 44 -15 11 -18 9 -20 -15 -20 -21 0 -24 -3 -13 -9 8 -6 18 -7
23 -4 4 2 21 -9 38 -26 16 -17 35 -32 42 -32 50 -6 63 -3 75 21 12 25 12 24 7
-7 -2 -18 0 -33 5 -33 6 0 10 5 10 12 0 6 7 4 18 -5 22 -20 38 -22 46 -4 3 6
4 3 1 -8 -6 -25 30 -52 49 -36 8 7 12 5 12 -10 0 -24 -13 -24 -49 -1 -27 19
-87 19 -87 1 0 -5 -4 -9 -10 -9 -5 0 -7 6 -4 14 3 7 -2 16 -12 20 -12 5 -15 2
-10 -10 3 -9 1 -14 -5 -12 -6 2 -10 7 -9 12 3 14 -54 47 -72 42 -9 -2 -25 5
-35 16 -10 11 -28 24 -41 29 -13 5 -20 13 -17 19 4 6 -5 10 -20 10 -17 0 -24
-4 -19 -12 5 -8 -5 -9 -34 -5 -24 3 -40 1 -36 -4 3 -5 -1 -9 -8 -9 -9 0 -9 -3
2 -10 12 -8 11 -10 -7 -10 -14 0 -24 -9 -32 -31 -6 -17 -15 -28 -20 -25 -5 4
-12 0 -15 -6 -3 -9 -15 -1 -35 22 -24 26 -34 31 -42 23 -14 -14 -53 2 -44 18
4 5 1 9 -4 9 -6 0 -11 -4 -11 -10 0 -23 -31 -8 -46 23 -16 29 -16 31 -1 18 10
-7 17 -9 17 -3 0 5 -7 15 -15 22 -11 10 -18 9 -30 -4 -15 -15 -15 -17 -1 -22
9 -3 16 -10 16 -16 0 -5 -4 -6 -10 -3 -16 10 -12 -21 5 -35 8 -7 12 -16 10
-21 -6 -9 16 -49 27 -49 5 0 8 7 8 15 0 9 9 15 24 15 18 0 35 -14 61 -50 20
-27 41 -50 46 -50 5 0 9 -8 9 -18 0 -10 5 -23 10 -28 8 -8 6 -15 -5 -24 -12
-10 -15 -10 -15 4 0 9 -8 16 -21 16 -11 0 -17 5 -14 10 3 6 1 10 -4 10 -6 0
-11 -4 -11 -9 0 -12 26 -32 32 -26 3 3 3 -6 1 -20 -3 -14 -11 -25 -18 -25 -22
0 -28 -33 -8 -47 34 -24 43 -34 43 -51 -1 -13 -4 -12 -14 6 l-13 24 -17 -26
c-9 -14 -22 -26 -29 -25 -9 0 -9 2 0 6 10 3 9 8 -2 19 -8 8 -11 22 -8 31 6 14
2 14 -20 -3 -32 -23 -33 -31 -6 -39 14 -5 19 -13 16 -26 -3 -10 -1 -22 4 -25
5 -3 9 1 9 8 1 7 8 2 16 -12 9 -14 13 -17 10 -7 -4 13 0 20 14 24 11 3 20 9
20 15 0 5 9 4 21 -2 15 -8 19 -19 17 -42 -4 -39 15 -47 30 -13 17 36 15 42
-13 49 -28 7 -33 27 -11 45 14 12 54 7 88 -10 22 -12 12 -47 -16 -51 -11 -2
-20 -9 -18 -16 1 -8 -2 -11 -7 -8 -9 6 -21 -15 -21 -36 0 -7 5 -6 14 1 10 8
16 9 21 1 7 -11 -15 -23 -35 -18 -7 2 -15 -3 -17 -9 -3 -9 6 -13 26 -13 16 0
33 -5 37 -12 5 -8 -2 -9 -24 -5 -37 8 -42 1 -9 -14 21 -9 20 -9 -5 -6 -15 2
-29 0 -30 -5 -2 -5 -11 -6 -21 -3 -9 4 -14 11 -11 16 3 5 10 7 15 4 5 -4 9 0
9 8 0 18 -53 34 -58 18 -4 -13 -32 -15 -32 -2 0 5 -11 11 -24 13 -24 5 -28 -5
-13 -30 5 -7 12 -10 17 -7 5 3 12 0 16 -6 5 -9 0 -10 -16 -6 -16 4 -23 1 -27
-14 -3 -10 -9 -19 -14 -19 -5 0 -9 -4 -9 -10 0 -5 14 -10 30 -10 17 0 30 5 30
10 0 7 6 7 19 0 11 -6 82 -10 168 -9 81 1 140 3 131 6 -30 8 -21 31 10 26 21
-4 24 -2 12 6 -8 6 -24 11 -34 11 -11 0 -16 3 -13 7 4 3 0 14 -9 24 -11 12
-12 19 -4 24 6 4 19 -2 29 -13 9 -12 29 -22 44 -24 30 -4 58 -35 50 -55 -4
-10 41 -13 228 -12 129 1 226 3 217 6 -10 2 -18 8 -18 13 0 4 9 6 20 3 11 -3
20 -9 20 -14 0 -4 203 -8 450 -9 l450 0 0 639 c0 502 -3 640 -12 644 -10 4
-10 6 0 6 9 1 12 245 12 1186 l0 1185 -2861 0 c-3060 0 -2889 2 -2889 -46 0
-14 3 -15 12 -6 7 7 21 12 33 12 12 0 25 4 30 9 9 8 126 17 162 12 18 -2 3
-40 -19 -47 -15 -5 -17 -8 -8 -14 14 -9 41 -2 51 12 5 8 15 -9 38 -64 6 -16
17 -28 26 -28 19 0 20 -16 0 -24 -8 -3 -15 -11 -15 -17 0 -7 -7 -20 -16 -30
-22 -25 -9 -39 35 -39 42 0 87 -25 61 -33 -8 -3 -32 -8 -53 -11 -41 -5 -70
-28 -72 -57 -2 -22 -1 -21 -38 -37 -34 -15 -113 -16 -122 -2 -9 15 -27 12 -20
-2 4 -7 -3 -2 -14 12 -12 14 -19 33 -17 43 2 9 -2 21 -10 25 -17 9 -7 52 12
52 8 0 17 7 20 15 3 8 15 17 27 21 31 10 44 26 49 64 6 38 -15 80 -38 80 -8 0
-14 5 -14 10 0 16 -27 12 -34 -5 -7 -19 -36 -20 -36 -2 0 9 -9 12 -29 9 -33
-5 -111 32 -111 53 0 17 33 29 59 20 11 -3 22 -1 26 5 4 7 -57 10 -191 10
-176 0 -198 -2 -210 -17 -13 -17 -15 -17 -28 0 -12 15 -33 17 -170 17 l-156 0
0 -351z m188 291 c4 -57 12 -80 26 -80 8 0 16 -7 20 -15 4 -10 14 -13 38 -9
33 5 33 5 13 -13 -11 -11 -25 -28 -31 -38 -20 -35 -74 -26 -74 12 0 8 -11 29
-25 47 -25 33 -34 86 -15 86 6 0 10 12 10 26 0 19 5 25 18 22 12 -2 18 -14 20
-38z m128 -32 c-4 -49 -29 -60 -34 -15 -2 15 1 27 7 27 6 0 11 7 11 15 0 8 4
15 10 15 6 0 8 -18 6 -42z m24 -8 c0 -5 -4 -10 -10 -10 -5 0 -10 5 -10 10 0 6
5 10 10 10 6 0 10 -4 10 -10z m12 -186 c4 -21 4 -47 2 -57 -5 -17 -57 -50 -66
-42 -3 3 -13 -4 -23 -15 -22 -24 -55 -26 -55 -4 0 9 14 33 30 54 17 21 30 41
30 46 0 14 54 64 64 61 6 -2 14 -21 18 -43z m177 -6 c-39 -25 -49 -29 -49 -16
0 7 10 18 23 24 25 12 46 6 26 -8z m-79 2 c0 -5 -4 -10 -10 -10 -5 0 -10 5
-10 10 0 6 5 10 10 10 6 0 10 -4 10 -10z m135 -30 c3 -5 -1 -10 -10 -10 -9 0
-13 5 -10 10 3 6 8 10 10 10 2 0 7 -4 10 -10z m42 -6 c-3 -3 -12 -4 -19 -1 -8
3 -5 6 6 6 11 1 17 -2 13 -5z m120 -29 c6 -7 12 -21 13 -31 2 -69 15 -104 41
-104 25 0 24 -15 -3 -34 -20 -14 -23 -13 -45 17 -13 18 -27 32 -31 31 -4 0
-13 12 -21 29 -8 16 -24 33 -35 37 -12 5 -18 9 -13 9 4 1 0 13 -9 27 -14 20
-15 27 -4 34 17 10 92 0 107 -15z m133 -95 c0 -5 -4 -10 -9 -10 -6 0 -13 5
-16 10 -3 6 1 10 9 10 9 0 16 -4 16 -10z m100 -65 c11 -13 8 -15 -15 -15 -23
0 -26 2 -15 15 7 8 14 15 15 15 1 0 8 -7 15 -15z m-712 -16 c-18 -12 -68 -11
-68 0 0 12 28 18 58 13 18 -4 20 -7 10 -13z m892 -83 c0 -3 -4 -8 -10 -11 -5
-3 -10 -1 -10 4 0 6 5 11 10 11 6 0 10 -2 10 -4z m1190 -36 c0 -5 -10 -15 -22
-21 l-23 -12 20 21 c23 24 25 25 25 12z m-1850 -25 c0 -8 -9 -19 -19 -25 -40
-21 -55 -6 -25 24 19 20 44 21 44 1z m2735 -116 c231 -24 264 -28 350 -43 50
-9 110 -21 135 -26 94 -22 193 -27 280 -15 160 23 186 24 215 9 15 -8 39 -14
54 -14 35 0 119 -29 142 -48 10 -9 25 -17 34 -18 9 -1 24 -9 33 -17 10 -9 44
-18 77 -21 110 -11 160 -19 166 -27 3 -5 40 -12 82 -15 43 -4 80 -10 82 -14 8
-12 -140 -30 -202 -25 -32 3 -78 7 -103 9 -91 7 -436 64 -625 102 -66 14 -183
36 -260 50 -77 13 -147 26 -155 29 -8 2 -94 13 -190 23 -133 15 -198 17 -270
11 -52 -5 -234 -8 -405 -7 -170 1 -380 -2 -465 -6 -131 -7 -153 -6 -142 5 9 9
39 14 90 15 42 0 107 7 144 14 56 11 84 11 160 1 80 -11 102 -11 161 3 38 9
112 16 165 17 53 1 135 4 182 8 126 12 155 11 265 0z m-3105 -103 c-18 -16
-80 -29 -80 -16 0 14 32 29 65 30 25 0 27 -2 15 -14z m4520 -16 c0 -5 -4 -10
-10 -10 -5 0 -10 5 -10 10 0 6 5 10 10 10 6 0 10 -4 10 -10z m-2970 -10 c0 -5
-11 -10 -24 -10 -14 0 -28 -5 -32 -11 -3 -6 -17 -8 -30 -5 -12 3 -35 1 -49 -6
-24 -11 -25 -13 -8 -20 17 -7 17 -8 -1 -5 -24 3 -34 27 -12 27 9 0 16 6 16 14
0 16 24 23 93 25 26 0 47 -3 47 -9z m-224 -115 c-13 -14 -28 -25 -35 -25 -6 0
-11 -4 -11 -10 0 -16 -30 -12 -36 5 -8 21 12 43 44 48 62 9 63 9 38 -18z
m4135 -5 c13 -7 46 -21 74 -31 63 -23 23 -26 -50 -4 -73 22 -105 38 -105 52 0
13 40 4 81 -17z m-489 -13 c-48 -6 -90 -6 -125 0 -46 9 -39 10 73 10 l125 0
-73 -10z m-3527 -27 c0 -16 -6 -26 -17 -28 -14 -3 -18 3 -18 28 0 25 4 31 18
28 11 -2 17 -12 17 -28z m-328 4 c-3 -3 -12 -4 -19 -1 -8 3 -5 6 6 6 11 1 17
-2 13 -5z m4523 -23 c0 -4 -11 -6 -25 -3 -14 2 -25 6 -25 8 0 2 11 4 25 4 14
0 25 -4 25 -9z m-4715 -11 c3 -5 1 -10 -4 -10 -6 0 -11 5 -11 10 0 6 2 10 4
10 3 0 8 -4 11 -10z m288 3 c-7 -2 -21 -2 -30 0 -10 3 -4 5 12 5 17 0 24 -2
18 -5z m112 -12 c3 -5 1 -12 -5 -16 -6 -4 -8 -11 -5 -16 4 -5 -2 -9 -12 -9
-17 -1 -17 -1 0 -11 25 -15 21 -27 -8 -21 -14 2 -25 8 -25 11 0 4 -10 7 -22 6
-13 -1 -29 0 -35 3 -18 6 -16 32 2 32 8 0 15 7 15 15 0 11 12 15 44 15 25 0
47 -4 51 -9z m3868 2 c-7 -2 -21 -2 -30 0 -10 3 -4 5 12 5 17 0 24 -2 18 -5z
m-1193 -23 c0 -11 -59 -23 -91 -18 l-24 5 25 11 c31 13 90 15 90 2z m1015 0
c3 -5 -2 -10 -12 -10 -17 -1 -17 -1 0 -14 13 -10 14 -15 5 -18 -26 -9 -188 -9
-188 0 0 15 52 34 115 42 33 4 63 8 67 9 4 0 10 -3 13 -9z m168 3 c-7 -2 -19
-2 -25 0 -7 3 -2 5 12 5 14 0 19 -2 13 -5z m-5083 -43 c0 -5 -4 -10 -10 -10
-5 0 -10 5 -10 10 0 6 5 10 10 10 6 0 10 -4 10 -10z m1314 -19 c7 -10 -33 -23
-47 -14 -10 6 11 23 30 23 6 0 14 -4 17 -9z m-944 -26 c0 -8 -4 -15 -10 -15
-5 0 -10 7 -10 15 0 8 5 15 10 15 6 0 10 -7 10 -15z m284 -14 c11 -12 13 -21
7 -25 -13 -9 -51 15 -51 31 0 19 25 16 44 -6z m621 -11 c3 -5 1 -10 -4 -10 -6
0 -11 5 -11 10 0 6 2 10 4 10 3 0 8 -4 11 -10z m4872 -18 c35 -22 21 -104 -21
-123 -27 -13 -43 -42 -27 -47 6 -2 11 -11 11 -19 0 -11 -6 -14 -22 -9 -13 3
-29 6 -36 6 -7 0 -10 5 -7 10 3 6 -1 10 -10 10 -9 0 -13 -4 -10 -10 7 -12 -39
-24 -60 -16 -8 3 -25 -4 -37 -15 -67 -60 -143 -119 -159 -124 -10 -3 -27 -1
-38 4 -39 21 -95 5 -74 -21 6 -7 14 -23 17 -35 6 -17 3 -23 -8 -23 -9 0 -16 4
-16 8 0 5 -11 15 -25 22 -22 12 -27 11 -38 -5 -11 -14 -18 -15 -34 -7 -23 13
-94 37 -135 46 -22 5 -26 3 -22 -9 4 -10 0 -15 -10 -15 -10 0 -16 7 -14 16 2
13 -6 16 -42 16 -25 0 -57 -3 -72 -7 -22 -6 -38 1 -87 35 -53 37 -58 44 -46
57 12 12 22 12 50 3 26 -8 39 -8 56 1 14 7 43 9 79 6 45 -5 62 -2 88 13 18 11
42 20 53 20 17 0 20 -5 17 -25 -6 -30 7 -42 28 -24 11 9 18 9 26 1 7 -7 23
-12 36 -12 18 0 23 4 18 16 -7 18 62 94 86 94 8 0 24 -9 36 -20 28 -26 38 -25
59 6 9 14 35 37 57 51 32 21 43 23 58 14 10 -6 24 -11 32 -11 16 0 46 42 46
64 0 29 23 29 46 0 22 -27 24 -28 37 -10 10 14 22 17 41 14 25 -5 27 -3 21 19
-3 13 -3 28 0 33 7 12 35 13 52 2z m-894 -39 c-24 -2 -62 -2 -85 0 -24 2 -5 4
42 4 47 0 66 -2 43 -4z m-5279 -49 c35 -13 12 -24 -51 -24 -69 0 -77 7 -21 20
44 11 54 11 72 4z m5546 -44 c30 -4 -100 -7 -290 -7 -190 -1 -334 3 -320 7 30
9 531 9 610 0z m-1282 -231 c-6 -4 -18 -5 -26 -1 -10 3 -13 1 -8 -6 4 -7 1
-12 -10 -12 -16 0 -16 1 -1 18 10 10 14 22 11 25 -4 4 5 1 19 -6 15 -7 21 -14
15 -18z m702 8 c0 7 6 10 14 7 8 -3 14 -14 13 -25 -1 -16 -9 -19 -58 -19 -52
0 -57 2 -52 19 6 22 62 34 75 16 5 -6 8 -5 8 2z m-660 -7 c0 -5 -2 -10 -4 -10
-3 0 -8 5 -11 10 -3 6 -1 10 4 10 6 0 11 -4 11 -10z m835 1 c3 -5 1 -12 -5
-16 -5 -3 -10 1 -10 9 0 18 6 21 15 7z m694 -28 c17 -21 27 -39 21 -41 -13 -5
-40 17 -40 31 0 6 -7 19 -17 29 -9 10 -11 18 -5 18 6 0 24 -17 41 -37z m-778
17 c6 0 7 -4 4 -10 -10 -15 -32 -12 -39 6 -5 12 -2 15 10 10 8 -3 20 -6 25 -6z
m226 -16 c20 -13 33 -24 30 -24 -26 0 -108 24 -116 34 -20 24 48 16 86 -10z
m-4917 -19 c-33 -19 -46 -19 -30 0 7 8 22 15 34 15 20 -1 20 -2 -4 -15z m5790
-25 c0 -5 -4 -10 -10 -10 -5 0 -10 5 -10 10 0 6 5 10 10 10 6 0 10 -4 10 -10z
m-2853 -16 c-3 -3 -12 -4 -19 -1 -8 3 -5 6 6 6 11 1 17 -2 13 -5z m-3317 -34
c0 -5 -4 -10 -10 -10 -5 0 -10 5 -10 10 0 6 5 10 10 10 6 0 10 -4 10 -10z
m620 -20 c-8 -5 -17 -7 -19 -4 -3 3 1 9 9 14 8 5 17 7 19 4 3 -3 -1 -9 -9 -14z
m2487 4 c-3 -3 -12 -4 -19 -1 -8 3 -5 6 6 6 11 1 17 -2 13 -5z m2206 -1 c-7
-2 -19 -2 -25 0 -7 3 -2 5 12 5 14 0 19 -2 13 -5z m-3338 -51 c0 -18 6 -36 13
-41 7 -4 12 -14 10 -22 -2 -9 7 -15 26 -17 18 -2 30 -11 33 -23 6 -22 14 -24
31 -7 9 9 15 9 24 0 14 -14 48 -16 48 -2 0 5 7 7 15 4 8 -3 13 -11 12 -17 -1
-7 8 -11 21 -10 16 2 21 -1 16 -10 -6 -9 -5 -9 7 0 9 7 25 11 37 8 12 -2 22 1
22 7 0 5 6 8 14 5 8 -3 17 -1 20 6 2 7 5 4 5 -5 1 -12 -6 -18 -20 -18 -11 0
-18 -4 -15 -9 3 -4 -5 -6 -18 -4 -13 3 -27 -1 -31 -8 -6 -9 -2 -11 13 -7 40
11 22 -6 -66 -65 -48 -31 -121 -88 -162 -127 l-75 -69 -3 39 c-3 39 -4 40 -43
40 l-39 0 -1 -57 c-1 -53 -4 -85 -7 -106 -1 -5 -9 -1 -18 7 -17 18 -64 22 -64
6 0 -5 12 -10 28 -11 25 -1 25 -2 -7 -9 -18 -4 -36 -12 -40 -18 -11 -18 -111
-19 -111 -1 0 8 12 10 33 6 19 -3 40 -1 48 5 11 8 10 9 -3 4 -10 -3 -18 0 -18
5 0 7 -9 9 -21 6 -25 -7 -51 2 -43 14 3 5 10 9 15 9 6 0 7 -4 4 -10 -12 -19 8
-10 30 14 28 30 23 36 -26 36 -20 0 -50 7 -65 15 l-29 15 40 1 c22 1 67 1 100
-1 33 -1 57 1 53 5 -4 4 -32 8 -62 10 -31 1 -62 7 -69 13 -16 13 -140 -3 -145
-19 -2 -5 -12 -9 -22 -9 -10 0 -22 -4 -25 -10 -3 -5 -19 -10 -34 -10 -15 0
-31 -4 -36 -9 -12 -12 -67 -2 -59 10 3 5 -6 9 -20 9 -14 0 -26 -4 -26 -10 0
-5 5 -10 12 -10 6 0 9 -2 6 -5 -8 -9 -38 6 -32 16 3 5 -3 6 -12 2 -15 -6 -15
-7 2 -20 10 -8 18 -19 16 -24 -1 -5 3 -9 10 -9 6 0 9 -2 6 -5 -10 -11 -58 7
-58 21 0 9 -12 14 -35 14 -19 0 -35 -5 -35 -10 0 -6 -11 -8 -25 -4 -15 4 -25
2 -25 -5 0 -6 -5 -11 -11 -11 -5 0 -7 5 -4 10 3 6 -3 10 -14 10 -22 0 -30 -20
-8 -20 6 0 4 -5 -6 -11 -11 -6 -33 -9 -50 -6 -21 3 -40 -2 -58 -15 -28 -21
-99 -33 -99 -17 0 15 -27 10 -34 -6 -8 -22 -41 -19 -43 5 -2 21 35 37 62 26 9
-3 15 0 15 10 0 11 -6 14 -16 10 -10 -4 -14 -1 -12 6 6 17 57 23 72 8 8 -8 7
-13 -4 -20 -31 -20 13 -7 76 22 11 5 24 8 30 7 14 -4 54 11 54 20 0 13 -63 22
-74 11 -5 -5 -17 -10 -25 -10 -11 0 -9 5 7 20 12 11 26 20 32 20 16 0 12 14
-8 27 -13 8 -34 8 -68 2 -32 -6 -50 -6 -52 1 -4 12 -34 13 -47 1 -17 -14 -77
-32 -69 -20 4 8 -1 9 -17 4 -40 -13 -91 -26 -139 -35 -25 -5 -60 -12 -78 -16
-18 -3 -35 -10 -38 -15 -3 -5 -13 -9 -23 -9 -10 0 -24 -7 -32 -16 -7 -8 -20
-13 -29 -11 -9 2 -22 -4 -29 -14 -7 -12 -23 -19 -41 -19 -32 0 -41 16 -12 23
10 3 6 5 -10 6 -16 0 -28 6 -28 11 0 6 -10 4 -23 -4 -12 -8 -35 -16 -52 -18
-16 -3 -24 -3 -18 -1 7 3 13 8 13 13 0 4 9 6 20 3 11 -3 20 -1 20 5 0 14 57
35 80 29 15 -4 20 0 20 13 0 10 3 20 8 23 4 2 1 2 -6 0 -8 -1 -38 -3 -68 -3
-54 0 -74 -15 -32 -23 20 -4 20 -4 -4 -6 -14 0 -28 -6 -30 -12 -2 -5 -11 -11
-20 -13 -10 -1 -21 -5 -24 -9 -18 -18 -26 -4 -20 35 l7 42 -25 -27 c-30 -32
-60 -37 -51 -7 6 19 5 19 -29 5 -19 -8 -43 -15 -53 -15 -11 1 -5 6 15 15 35
15 43 28 14 23 -11 -2 -19 2 -20 7 0 6 10 9 22 8 19 -1 23 3 19 18 -6 21 11
26 23 7 5 -8 10 -6 15 8 12 30 10 44 -6 44 -8 0 -15 5 -15 11 0 5 4 8 9 4 14
-8 58 15 58 31 0 10 -15 14 -59 14 -37 0 -65 5 -73 14 -11 11 -3 18 50 41 35
16 61 33 58 38 -4 6 5 8 20 5 15 -3 24 -1 21 3 -3 5 -17 9 -32 9 -16 0 -32 8
-40 20 -12 19 -10 20 48 20 33 0 60 4 60 10 0 6 15 10 33 11 l32 1 -31 7
c-102 25 -24 47 231 66 230 17 316 19 295 5 -11 -7 -4 -10 25 -10 29 0 36 3
25 10 -10 6 7 7 51 3 42 -3 73 -1 87 6 13 7 151 17 354 26 466 21 480 21 598
21 l105 -1 0 -33z m3915 16 c28 0 31 -2 15 -8 -14 -6 -4 -9 35 -10 55 -1 55
-1 28 -16 -21 -11 -56 -14 -145 -12 -102 3 -116 5 -119 21 -1 9 2 17 7 17 6 0
7 5 3 12 -5 8 12 9 67 3 41 -4 90 -7 109 -7z m-3243 -20 c-3 -8 -6 -5 -6 6 -1
11 2 17 5 13 3 -3 4 -12 1 -19z m73 0 c0 -16 -3 -19 -11 -11 -6 6 -8 16 -5 22
11 17 16 13 16 -11z m40 1 c0 -5 -4 -9 -10 -9 -5 0 -10 7 -10 16 0 8 5 12 10
9 6 -3 10 -10 10 -16z m17 -1 c-3 -8 -6 -5 -6 6 -1 11 2 17 5 13 3 -3 4 -12 1
-19z m88 12 c3 -5 1 -10 -4 -10 -6 0 -11 5 -11 10 0 6 2 10 4 10 3 0 8 -4 11
-10z m555 -10 c0 -11 -7 -20 -15 -20 -8 0 -15 9 -15 20 0 11 7 20 15 20 8 0
15 -9 15 -20z m88 -3 c2 -10 -3 -17 -12 -17 -10 0 -16 9 -16 21 0 24 23 21 28
-4z m92 8 c0 -8 -7 -15 -15 -15 -16 0 -20 12 -8 23 11 12 23 8 23 -8z m26 -12
c-10 -10 -19 5 -10 18 6 11 8 11 12 0 2 -7 1 -15 -2 -18z m44 12 c0 -8 -4 -15
-10 -15 -5 0 -10 7 -10 15 0 8 5 15 10 15 6 0 10 -7 10 -15z m40 0 c0 -8 -7
-15 -15 -15 -16 0 -20 12 -8 23 11 12 23 8 23 -8z m30 0 c0 -8 -4 -15 -10 -15
-5 0 -10 7 -10 15 0 8 5 15 10 15 6 0 10 -7 10 -15z m30 0 c0 -8 -4 -15 -10
-15 -5 0 -10 7 -10 15 0 8 5 15 10 15 6 0 10 -7 10 -15z m30 0 c0 -8 -4 -15
-10 -15 -5 0 -10 7 -10 15 0 8 5 15 10 15 6 0 10 -7 10 -15z m17 -7 c-3 -8 -6
-5 -6 6 -1 11 2 17 5 13 3 -3 4 -12 1 -19z m33 12 c0 -5 -4 -10 -10 -10 -5 0
-10 5 -10 10 0 6 5 10 10 10 6 0 10 -4 10 -10z m17 -12 c-3 -8 -6 -5 -6 6 -1
11 2 17 5 13 3 -3 4 -12 1 -19z m-517 -3 c0 -8 -9 -15 -20 -15 -11 0 -20 7
-20 15 0 8 9 15 20 15 11 0 20 -7 20 -15z m610 -55 c0 -16 -2 -30 -5 -30 -8 0
-23 44 -18 53 10 17 23 5 23 -23z m-125 -10 c8 -16 15 -47 15 -70 l0 -40 -71
0 -71 0 6 58 c3 31 6 63 7 70 2 7 20 12 50 12 44 0 50 -3 64 -30z m75 15 c0
-8 -4 -15 -10 -15 -5 0 -7 7 -4 15 4 8 8 15 10 15 2 0 4 -7 4 -15z m217 -17
c-3 -7 -5 -2 -5 12 0 14 2 19 5 13 2 -7 2 -19 0 -25z m197 1 c-8 -14 -34 -11
-34 4 0 8 3 17 7 20 9 9 34 -13 27 -24z m-654 1 c6 -12 10 -42 8 -67 l-3 -47
-67 -2 -67 -2 -3 46 c-5 77 6 92 68 92 43 0 55 -4 64 -20z m420 5 c0 -8 -7
-15 -15 -15 -26 0 -18 20 13 29 1 1 2 -6 2 -14z m-1365 -15 c-10 -11 -22 -20
-27 -20 -10 0 24 38 36 39 5 1 1 -8 -9 -19z m305 10 c0 -5 -4 -10 -10 -10 -5
0 -10 5 -10 10 0 6 5 10 10 10 6 0 10 -4 10 -10z m473 -14 c4 -6 6 -31 5 -56
l-3 -45 -71 -3 -71 -3 -6 41 c-7 57 1 78 32 82 40 6 105 -4 114 -16z m512 14
c3 -5 1 -10 -4 -10 -6 0 -11 5 -11 10 0 6 2 10 4 10 3 0 8 -4 11 -10z m215 0
c0 -5 -4 -10 -10 -10 -5 0 -10 5 -10 10 0 6 5 10 10 10 6 0 10 -4 10 -10z
m-1323 -37 c-3 -10 -5 -4 -5 12 0 17 2 24 5 18 2 -7 2 -21 0 -30z m414 8 c0
-9 1 -32 2 -51 l2 -35 -78 -3 -78 -3 3 35 c2 29 6 36 23 36 12 0 31 9 44 21
12 11 29 18 37 15 7 -3 14 -1 14 4 0 17 30 -1 31 -19z m1796 23 c-3 -3 -12 -4
-19 -1 -8 3 -5 6 6 6 11 1 17 -2 13 -5z m133 -4 c0 -5 -4 -10 -10 -10 -5 0
-10 5 -10 10 0 6 5 10 10 10 6 0 10 -4 10 -10z m110 -3 c0 -8 -7 -14 -15 -14
-8 0 -15 6 -15 14 0 7 7 13 15 13 8 0 15 -6 15 -13z m140 1 c0 -7 -14 -14 -30
-15 -21 -2 -30 2 -30 12 0 10 10 15 30 15 17 0 30 -5 30 -12z m134 -9 c-7 -12
-94 -12 -94 0 0 14 16 17 61 13 21 -2 36 -8 33 -13z m-2817 -26 c-3 -10 -5 -4
-5 12 0 17 2 24 5 18 2 -7 2 -21 0 -30z m30 5 c-3 -7 -5 -2 -5 12 0 14 2 19 5
13 2 -7 2 -19 0 -25z m1065 -10 c4 -25 -11 -58 -28 -58 -2 0 -4 22 -4 50 0 38
3 48 14 44 8 -3 16 -19 18 -36z m-3815 26 c-3 -3 -12 -4 -19 -1 -8 3 -5 6 6 6
11 1 17 -2 13 -5z m2690 -46 c-2 -13 -4 -5 -4 17 -1 22 1 32 4 23 2 -10 2 -28
0 -40z m2923 42 c0 -5 -7 -10 -15 -10 -8 0 -15 5 -15 10 0 6 7 10 15 10 8 0
15 -4 15 -10z m-1740 -9 c0 -6 -4 -12 -10 -16 -5 -3 -7 -12 -3 -20 3 -8 0 -15
-6 -15 -6 0 -11 6 -11 14 0 8 -3 21 -6 30 -4 12 0 16 15 16 12 0 21 -4 21 -9z
m117 3 c-3 -3 -12 -4 -19 -1 -8 3 -5 6 6 6 11 1 17 -2 13 -5z m-1537 -34 c0
-5 -10 -10 -22 -9 -22 0 -22 1 -3 9 11 5 21 9 23 9 1 1 2 -3 2 -9z m586 -14
c0 -13 -4 -22 -8 -20 -3 2 -8 -1 -10 -7 -3 -8 -16 -9 -43 -4 -27 6 -34 10 -21
13 15 3 16 6 5 13 -9 6 -4 7 15 3 20 -5 27 -3 22 4 -3 6 3 12 16 15 13 2 24 5
24 6 1 0 1 -10 0 -23z m-736 5 c-8 -5 -26 -11 -40 -15 -21 -5 -20 -3 5 9 32
15 60 20 35 6z m253 2 c-7 -2 -21 -2 -30 0 -10 3 -4 5 12 5 17 0 24 -2 18 -5z
m-313 -43 c0 -5 -9 -10 -21 -10 -11 0 -17 5 -14 10 3 6 13 10 21 10 8 0 14 -4
14 -10z m160 6 c0 -9 -40 -13 -46 -5 -3 5 6 9 20 9 14 0 26 -2 26 -4z m140 0
c0 -3 -4 -8 -10 -11 -5 -3 -10 -1 -10 4 0 6 5 11 10 11 6 0 10 -2 10 -4z
m1255 -55 c-9 -16 -25 -3 -18 15 4 10 9 12 15 6 6 -6 7 -15 3 -21z m-1625 -1
c-24 -21 -60 -27 -60 -10 0 6 12 10 28 10 21 0 24 2 12 10 -12 7 -8 10 14 10
l29 0 -23 -20z m3535 -5 c79 -8 95 -13 95 -30 0 -9 6 -12 16 -8 14 5 16 1 11
-23 -9 -47 5 -60 60 -58 29 2 47 7 45 14 -2 8 3 8 17 1 10 -6 21 -8 24 -4 3 3
14 2 24 -2 10 -5 26 -7 36 -6 9 1 17 -3 17 -9 0 -7 8 -9 19 -5 23 7 49 -20 26
-29 -24 -9 -17 -48 13 -73 l27 -22 -42 -1 c-41 0 -42 -1 -33 -24 11 -30 4 -37
-26 -30 -26 7 -33 -10 -9 -20 11 -4 13 -11 5 -31 -6 -16 -6 -25 0 -25 6 0 10
-4 10 -10 0 -5 -7 -10 -15 -10 -8 0 -15 5 -15 11 0 6 -7 8 -15 5 -8 -3 -22 -9
-32 -13 -11 -4 -14 -3 -9 6 5 7 18 16 30 21 l21 9 -22 0 c-12 1 -30 4 -40 7
-15 5 -16 4 -3 -5 13 -10 13 -12 0 -21 -25 -16 -33 -12 -28 15 6 29 -7 42 -25
27 -9 -8 -12 -4 -12 14 0 22 3 24 30 19 l30 -6 -31 18 c-17 10 -29 23 -28 28
5 13 -33 37 -40 26 -3 -5 1 -14 9 -21 27 -22 16 -29 -40 -23 -61 6 -112 -15
-101 -43 3 -9 1 -12 -4 -9 -17 10 -11 27 18 58 l27 29 -25 -6 c-14 -3 -19 -3
-12 0 20 9 14 24 -10 25 -22 0 -22 1 -3 8 19 8 18 9 -5 13 -22 5 -21 5 7 7 25
1 31 -2 27 -14 -7 -17 11 -21 21 -5 10 16 55 12 55 -6 0 -8 5 -12 11 -8 6 3 9
14 6 24 -5 19 16 22 171 23 43 1 59 11 20 14 -11 1 -25 8 -29 15 -5 7 -16 13
-26 13 -10 1 -28 6 -40 13 -12 6 -28 9 -37 6 -20 -8 -177 26 -170 37 2 5 -17
6 -43 3 -51 -5 -130 17 -100 29 11 4 14 14 11 32 -3 20 1 28 18 35 13 4 30 7
38 5 8 -2 42 -6 75 -10z m-3168 -1 c-3 -3 -12 -4 -19 -1 -8 3 -5 6 6 6 11 1
17 -2 13 -5z m2913 -24 c8 -5 11 -12 8 -16 -4 -3 -14 1 -23 10 -18 17 -9 21
15 6z m-3340 -6 c0 -3 -11 -15 -26 -26 -14 -11 -22 -23 -19 -26 3 -3 -5 -12
-17 -19 -18 -10 -20 -12 -5 -13 28 0 20 -15 -16 -28 -38 -14 -63 -15 -32 -2
19 8 19 9 -2 9 l-22 1 23 25 c13 14 30 25 37 25 11 0 11 2 -1 10 -11 7 -12 10
-2 10 8 0 25 9 39 20 26 20 43 26 43 14z m3420 -4 c0 -5 -2 -10 -4 -10 -3 0
-8 5 -11 10 -3 6 -1 10 4 10 6 0 11 -4 11 -10z m445 -8 c-11 -11 -21 -15 -23
-11 -6 15 -32 10 -32 -6 0 -9 -9 -15 -25 -15 -14 0 -25 5 -25 10 0 6 5 10 11
10 5 0 8 4 4 9 -6 10 9 15 69 19 40 3 40 3 21 -16z m55 8 c0 -5 -7 -7 -15 -4
-8 4 -15 8 -15 10 0 2 7 4 15 4 8 0 15 -4 15 -10z m-2235 -20 c3 -5 -1 -10 -9
-10 -9 0 -16 5 -16 10 0 6 4 10 9 10 6 0 13 -4 16 -10z m570 0 c3 -5 -1 -10
-10 -10 -9 0 -13 5 -10 10 3 6 8 10 10 10 2 0 7 -4 10 -10z m1140 0 c3 -5 -3
-10 -15 -10 -12 0 -18 5 -15 10 3 6 10 10 15 10 5 0 12 -4 15 -10z m-1628 -26
c24 -9 43 -20 43 -25 0 -4 24 -15 53 -24 28 -9 61 -20 72 -25 11 -5 27 -11 35
-14 13 -5 -53 2 -123 13 -5 0 -6 5 -3 10 3 5 -14 14 -39 21 -25 7 -42 16 -39
21 3 5 -9 6 -25 3 -17 -4 -45 -1 -63 7 -32 13 -32 13 -8 20 39 11 52 10 97 -7z
m128 6 c3 -5 23 -10 43 -10 25 0 33 -3 23 -9 -13 -9 -41 -3 -91 17 -24 10 -24
11 -3 11 12 1 25 -3 28 -9z m382 -16 c-6 -7 -97 8 -97 16 0 4 23 3 50 -3 28
-5 49 -11 47 -13z m207 -6 c-3 -4 -11 -5 -19 -1 -21 7 -19 12 4 10 11 0 18 -5
15 -9z m-596 -8 c13 0 20 -4 17 -10 -7 -11 -65 -2 -80 13 -7 6 -2 8 15 3 14
-3 35 -6 48 -6z m165 3 c-7 -2 -19 -2 -25 0 -7 3 -2 5 12 5 14 0 19 -2 13 -5z
m264 1 c-3 -3 -12 -4 -19 -1 -8 3 -5 6 6 6 11 1 17 -2 13 -5z m386 -10 c15 -3
25 -9 23 -13 -5 -7 12 -9 104 -12 29 -1 32 -2 15 -10 -18 -8 -18 -9 5 -7 14 0
36 -4 50 -10 24 -10 24 -11 -11 -11 -20 -1 -49 3 -65 9 -16 5 -42 11 -59 14
-16 2 -43 11 -60 20 -19 10 -55 16 -97 16 -37 0 -70 5 -73 10 -6 10 109 6 168
-6z m-2496 -11 c-20 -2 -52 -2 -70 0 -17 2 0 4 38 4 39 0 53 -2 32 -4z m221 0
c-10 -2 -28 -2 -40 0 -13 2 -5 4 17 4 22 1 32 -1 23 -4z m1878 -11 c-10 -2
-22 0 -28 6 -6 6 0 7 19 4 21 -5 23 -7 9 -10z m-120 -1 c-6 -10 26 -21 62 -21
12 0 39 -9 59 -20 21 -11 54 -20 73 -20 24 0 31 -3 21 -9 -18 -12 -6 -30 17
-24 22 5 72 -13 72 -27 0 -6 -8 -6 -23 -1 -12 5 -44 12 -71 15 -28 4 -57 11
-65 17 -12 7 -8 8 12 3 41 -9 33 0 -28 30 -35 18 -63 26 -78 22 -14 -3 -33 1
-46 10 -17 12 -26 13 -34 5 -6 -6 -16 -11 -21 -11 -6 0 -4 5 4 10 11 7 7 10
-20 11 -30 2 -28 3 15 9 28 4 51 8 53 8 2 1 1 -2 -2 -7z m227 2 c-7 -2 -19 -2
-25 0 -7 3 -2 5 12 5 14 0 19 -2 13 -5z m280 -13 c11 0 18 -3 14 -6 -3 -3 -20
-3 -38 1 -23 5 -28 10 -18 16 8 5 15 4 17 -1 2 -6 13 -10 25 -10z m-2250 -6
c-4 -10 -9 -12 -16 -5 -5 5 -26 8 -46 6 -34 -4 -35 -4 -6 4 51 15 75 13 68 -5z
m1920 9 c-7 -2 -19 -2 -25 0 -7 3 -2 5 12 5 14 0 19 -2 13 -5z m207 -8 c7 -8
20 -15 29 -15 13 0 13 -2 2 -9 -19 -12 -88 -12 -119 1 -15 6 -43 14 -62 18
-35 8 -35 8 -5 9 17 0 45 -3 64 -9 19 -5 46 -7 60 -3 23 6 24 7 6 14 -15 6
-16 8 -4 8 9 1 22 -6 29 -14z m-3150 -5 c12 -8 9 -10 -13 -10 -16 0 -26 4 -22
10 8 12 16 12 35 0z m788 5 c-7 -7 -97 -9 -105 -2 -3 4 20 7 52 7 32 0 56 -2
53 -5z m2709 -1 c-3 -3 -12 -4 -19 -1 -8 3 -5 6 6 6 11 1 17 -2 13 -5z m-3043
-26 c-5 -8 -2 -9 9 -5 11 4 17 1 17 -8 0 -13 -31 -22 -77 -23 -49 -1 -6 39 50
47 5 0 5 -4 1 -11z m605 -4 c2 -2 -27 -4 -65 -3 -44 0 -62 3 -49 8 18 7 104 3
114 -5z m1636 -9 c17 -7 37 -15 45 -18 8 -3 1 -6 -16 -6 -41 -1 -130 29 -114
39 14 9 42 4 85 -15z m335 3 c10 -6 7 -7 -10 -2 -14 3 -32 11 -40 16 -10 6 -7
7 10 2 14 -3 32 -11 40 -16z m230 15 c-8 -3 -19 -12 -23 -20 -7 -11 -11 -12
-24 -2 -13 12 -13 14 4 20 10 4 27 8 38 8 14 -1 16 -2 5 -6z m905 -3 c-3 -5
-12 -10 -18 -10 -7 0 -6 4 3 10 19 12 23 12 15 0z m-5840 -10 c-3 -5 -12 -7
-20 -3 -21 7 -19 13 6 13 11 0 18 -4 14 -10z m1610 1 c-3 -5 3 -11 12 -13 10
-2 -12 -5 -49 -6 -63 -2 -92 10 -50 21 32 9 93 7 87 -2z m812 3 c-3 -3 -12 -4
-19 -1 -8 3 -5 6 6 6 11 1 17 -2 13 -5z m2617 -5 c-7 -12 -71 -11 -79 1 -3 5
13 9 39 8 25 0 43 -4 40 -9z m905 -5 c2 -2 -12 -4 -32 -4 -20 0 -38 4 -42 9
-5 9 64 4 74 -5z m-589 -4 c-20 -13 -40 -13 -40 0 0 6 12 10 28 10 21 0 24 -2
12 -10z m-4690 -10 c-8 -5 -19 -10 -25 -10 -5 0 -3 5 5 10 8 5 20 10 25 10 6
0 3 -5 -5 -10z m1757 -5 c0 -8 -4 -15 -8 -15 -4 0 -9 7 -13 15 -3 9 0 15 8 15
7 0 13 -7 13 -15z m3380 9 c-3 -3 -12 -4 -19 -1 -8 3 -5 6 6 6 11 1 17 -2 13
-5z m-3150 -10 c-3 -3 -12 -4 -19 -1 -8 3 -5 6 6 6 11 1 17 -2 13 -5z m2551
-9 c4 -5 -6 -5 -22 -1 -25 6 -28 5 -17 -8 10 -12 9 -14 -10 -9 -17 5 -20 3
-14 -8 5 -8 4 -11 0 -6 -5 4 -9 16 -10 26 -1 16 4 19 32 16 19 -2 38 -6 41
-10z m-3655 -2 c-7 -2 -19 -2 -25 0 -7 3 -2 5 12 5 14 0 19 -2 13 -5z m77 3
c0 -3 -4 -8 -10 -11 -5 -3 -10 -1 -10 4 0 6 5 11 10 11 6 0 10 -2 10 -4z m96
-8 c6 -10 -33 -9 -66 2 -20 7 -17 8 18 7 24 0 46 -5 48 -9z m3084 -3 c16 -19
10 -19 -26 0 -25 13 -26 15 -8 15 12 0 27 -7 34 -15z m218 8 c-10 -2 -26 -2
-35 0 -10 3 -2 5 17 5 19 0 27 -2 18 -5z m760 -12 c11 -7 10 -9 -3 -14 -9 -4
-13 -3 -10 2 3 5 -3 12 -12 14 -13 3 -14 5 -3 6 8 0 21 -3 28 -8z m-4200 -15
c9 -10 -19 -26 -43 -25 l-20 0 20 9 c22 9 14 14 -35 24 -14 3 -3 3 23 2 26 -2
51 -7 55 -10z m514 7 c-6 -3 -10 -9 -6 -14 3 -5 -9 -9 -25 -9 -29 0 -43 14
-21 22 16 5 67 6 52 1z m623 -3 c13 -6 2 -7 -30 -3 -27 3 -52 7 -54 9 -9 8 65
2 84 -6z m2370 1 c10 -17 -9 -19 -40 -6 l-30 13 32 1 c17 1 34 -3 38 -8z
m-4560 -11 c-3 -5 -11 -10 -16 -10 -6 0 -7 5 -4 10 3 6 11 10 16 10 6 0 7 -4
4 -10z m255 -10 c0 -4 -11 -10 -25 -12 -28 -6 -30 -3 -13 16 13 13 38 11 38
-4z m880 10 c0 -5 -5 -10 -11 -10 -5 0 -7 5 -4 10 3 6 8 10 11 10 2 0 4 -4 4
-10z m2821 -8 c-7 -2 -18 1 -23 6 -8 8 -4 9 13 5 13 -4 18 -8 10 -11z m999 13
c0 -2 -9 -9 -20 -15 -12 -6 -20 -7 -20 -1 0 5 8 12 18 14 9 3 18 5 20 6 1 0 2
-1 2 -4z m50 -15 l-23 -20 30 6 c18 3 33 1 37 -5 8 -12 -34 -15 -71 -5 -28 8
-30 24 -3 24 11 0 20 5 20 10 0 6 7 10 17 10 13 0 11 -4 -7 -20z m195 10 c8
-13 -25 -13 -45 0 -12 8 -9 10 12 10 15 0 30 -4 33 -10z m592 4 c-3 -3 -12 -4
-19 -1 -8 3 -5 6 6 6 11 1 17 -2 13 -5z m40 0 c-3 -3 -12 -4 -19 -1 -8 3 -5 6
6 6 11 1 17 -2 13 -5z m-1777 -14 c0 -5 -12 -10 -27 -9 -25 0 -26 1 -8 9 27
12 35 12 35 0z m697 -3 c7 0 14 -6 17 -14 8 -20 -25 -16 -59 7 l-30 21 30 -7
c16 -4 35 -7 42 -7z m-2928 -6 c9 -6 22 -6 33 0 11 6 30 6 50 0 25 -7 28 -9
11 -10 -13 -1 -23 -6 -23 -12 0 -8 -12 -10 -35 -6 -19 3 -35 2 -35 -4 0 -5 12
-9 28 -9 15 0 34 -5 42 -10 11 -7 8 -10 -15 -9 -44 2 -96 19 -90 30 4 5 -6 9
-21 9 -41 0 -18 18 36 29 3 0 12 -3 19 -8z m375 0 c9 -13 -14 -19 -62 -14 -78
6 -85 22 -10 23 37 0 69 -4 72 -9z m2063 3 c-3 -3 -12 -4 -19 -1 -8 3 -5 6 6
6 11 1 17 -2 13 -5z m114 -11 c23 -12 55 -17 96 -16 35 1 65 -2 68 -8 4 -5 -8
-9 -25 -9 -18 0 -29 -4 -25 -10 3 -5 1 -10 -4 -10 -6 0 -11 5 -11 10 0 6 -15
10 -32 10 -18 0 -46 7 -62 15 -15 8 -32 13 -36 10 -5 -3 -16 -2 -25 1 -13 5
-14 8 -3 15 18 12 20 11 59 -8z m222 10 c-7 -2 -19 -2 -25 0 -7 3 -2 5 12 5
14 0 19 -2 13 -5z m261 -2 c19 -7 19 -8 -1 -13 -14 -4 -24 0 -27 8 -6 15 -1
16 28 5z m413 3 c-3 -3 -12 -4 -19 -1 -8 3 -5 6 6 6 11 1 17 -2 13 -5z m446
-1 c-7 -2 -19 -2 -25 0 -7 3 -2 5 12 5 14 0 19 -2 13 -5z m-4123 -12 c-8 -5
-42 -12 -74 -16 -54 -7 -58 -6 -45 8 10 12 32 16 74 16 39 0 55 -3 45 -8z
m3100 -1 c0 -5 -4 -10 -9 -10 -6 0 -13 5 -16 10 -3 6 1 10 9 10 9 0 16 -4 16
-10z m549 -10 c34 -9 41 -14 31 -23 -10 -9 -14 -9 -17 0 -2 7 -10 10 -17 7
-15 -6 -68 20 -59 29 3 4 9 5 12 3 3 -2 26 -9 50 -16z m-5069 0 c0 -5 -11 -10
-25 -10 -14 0 -25 -4 -25 -8 0 -4 -14 -13 -30 -19 -17 -6 -29 -17 -28 -25 2
-9 -11 -13 -49 -13 -58 0 -70 12 -23 22 17 3 30 11 30 17 0 7 15 12 34 12 18
0 41 8 50 17 19 18 66 23 66 7z m967 4 c-3 -3 -12 -4 -19 -1 -8 3 -5 6 6 6 11
1 17 -2 13 -5z m3426 -1 c4 -4 28 -14 54 -23 46 -16 70 -40 39 -40 -9 0 -16 5
-16 10 0 6 -20 15 -45 22 -24 7 -47 18 -49 25 -6 14 6 18 17 6z m532 -3 c3 -5
1 -10 -4 -10 -6 0 -11 5 -11 10 0 6 2 10 4 10 3 0 8 -4 11 -10z m-3991 -9 c3
-5 -1 -12 -10 -15 -8 -3 -12 -2 -9 3 3 5 -3 12 -12 14 -14 4 -13 5 4 6 12 0
24 -3 27 -8z m226 -11 c-13 -24 -69 -66 -82 -62 -6 2 -8 -4 -5 -13 7 -16 -9
-20 -38 -9 -13 5 -14 8 -3 15 10 7 10 9 1 9 -7 0 -13 9 -13 20 0 12 -7 20 -17
20 -16 1 -16 2 -2 10 8 5 25 7 37 3 17 -4 20 -11 16 -37 l-4 -31 13 35 c10 25
15 30 18 18 5 -24 30 -8 32 20 1 17 8 22 29 22 26 0 28 -2 18 -20z m-1090 -1
c0 -5 -5 -9 -11 -9 -5 0 -7 -4 -4 -10 4 -6 -12 -10 -42 -9 -47 1 -47 1 -15 10
18 5 31 13 28 17 -2 4 7 8 20 8 13 1 24 -2 24 -7z m4597 5 c-3 -3 -12 -4 -19
-1 -8 3 -5 6 6 6 11 1 17 -2 13 -5z m-4047 -14 c0 -5 -7 -10 -16 -10 -8 0 -12
5 -9 10 3 6 10 10 16 10 5 0 9 -4 9 -10z m734 1 c3 -5 -5 -11 -19 -13 -24 -5
-32 2 -18 15 9 10 31 9 37 -2z m3176 -1 c0 -5 -4 -10 -10 -10 -5 0 -10 5 -10
10 0 6 5 10 10 10 6 0 10 -4 10 -10z m-2923 -6 c-3 -3 -12 -4 -19 -1 -8 3 -5
6 6 6 11 1 17 -2 13 -5z m2212 -10 c2 -2 -5 -4 -16 -4 -12 0 -23 -5 -25 -12
-3 -9 -12 -9 -36 1 -54 22 -48 32 15 26 32 -4 60 -9 62 -11z m591 6 c0 -5 -6
-10 -14 -10 -8 0 -18 5 -21 10 -3 6 3 10 14 10 12 0 21 -4 21 -10z m325 0 c3
-6 -1 -7 -9 -4 -18 7 -21 14 -7 14 6 0 13 -4 16 -10z m52 4 c-3 -3 -12 -4 -19
-1 -8 3 -5 6 6 6 11 1 17 -2 13 -5z m308 -4 c18 -8 17 -9 -7 -9 -16 -1 -28 4
-28 9 0 12 8 12 35 0z m-5140 -10 c3 -5 -1 -10 -9 -10 -9 0 -16 5 -16 10 0 6
4 10 9 10 6 0 13 -4 16 -10z m1340 0 c-3 -5 -11 -10 -16 -10 -6 0 -7 5 -4 10
3 6 11 10 16 10 6 0 7 -4 4 -10z m2302 -9 c-4 -15 2 -22 24 -30 16 -6 36 -17
45 -25 8 -8 21 -13 28 -10 8 3 17 -1 22 -8 4 -7 4 -10 0 -6 -5 4 -19 3 -33 -3
-15 -5 -22 -5 -18 0 3 5 -5 11 -17 13 -13 2 -21 7 -20 12 7 18 -24 24 -90 19
-48 -4 -68 -2 -68 6 0 6 11 11 25 11 14 0 25 5 25 10 0 6 16 10 36 10 21 0 33
4 29 10 -3 6 -1 10 6 10 6 0 9 -8 6 -19z m1700 13 c-3 -3 -12 -4 -19 -1 -8 3
-5 6 6 6 11 1 17 -2 13 -5z m-4 -29 c8 4 17 2 20 -2 3 -5 -14 -10 -38 -12 -44
-2 -69 14 -44 30 8 5 20 2 30 -7 9 -8 23 -12 32 -9z m-4303 4 c0 -5 5 -7 10
-4 6 3 10 1 10 -4 0 -6 -15 -11 -32 -10 -18 0 -27 3 -20 6 6 2 10 9 6 14 -3 5
2 9 10 9 9 0 16 -5 16 -11z m4125 1 c-3 -5 -11 -10 -16 -10 -6 0 -7 5 -4 10 3
6 11 10 16 10 6 0 7 -4 4 -10z m60 0 c3 -5 1 -10 -4 -10 -6 0 -11 5 -11 10 0
6 2 10 4 10 3 0 8 -4 11 -10z m-5215 -10 c0 -5 -6 -10 -14 -10 -8 0 -18 5 -21
10 -3 6 3 10 14 10 12 0 21 -4 21 -10z m900 5 c0 -2 -9 -9 -20 -15 -15 -8 -20
-8 -20 3 0 7 9 13 20 14 11 1 20 0 20 -2z m1314 -20 c9 -14 13 -25 8 -25 -5 0
-14 11 -20 25 -6 14 -10 25 -8 25 2 0 11 -11 20 -25z m1666 15 c13 -9 13 -10
0 -9 -8 0 -24 4 -35 9 l-20 9 20 0 c11 0 27 -4 35 -9z m1690 -11 c0 -5 -7 -9
-15 -9 -15 0 -20 12 -9 23 8 8 24 -1 24 -14z m-1624 -4 c18 -9 23 -15 12 -15
-9 0 -18 -3 -21 -7 -2 -5 -2 -2 -1 5 2 6 -3 12 -11 12 -8 0 -15 5 -15 10 0 13
2 13 36 -5z m-4206 -2 c-8 -4 -19 -12 -25 -18 -5 -7 -22 -15 -37 -19 -14 -3
-33 -9 -42 -12 -12 -5 -15 -2 -10 11 4 9 14 15 23 12 9 -2 30 4 46 14 17 10
37 18 45 17 13 0 13 0 0 -5z m60 -3 c0 -5 -4 -10 -9 -10 -6 0 -13 5 -16 10 -3
6 1 10 9 10 9 0 16 -4 16 -10z m64 -9 c4 -5 -7 -12 -24 -16 -39 -9 -48 -24
-24 -43 18 -14 18 -14 -4 -9 -25 6 -77 -16 -77 -33 0 -5 -3 -10 -7 -10 -5 0
-19 0 -33 0 -37 0 -30 18 10 26 19 3 35 10 35 15 0 5 7 9 15 9 8 0 15 5 15 11
0 7 -10 9 -25 5 -14 -4 -25 -2 -25 4 0 5 8 10 18 10 20 0 89 23 98 33 10 10
22 9 28 -2z m113 3 c-3 -3 -12 -4 -19 -1 -8 3 -5 6 6 6 11 1 17 -2 13 -5z
m791 -6 c-4 -19 56 -22 89 -5 37 19 89 19 104 1 13 -16 8 -17 -43 -5 -26 6
-37 5 -35 -3 1 -6 -13 -12 -30 -14 -18 -2 -33 -7 -33 -12 0 -5 -16 -2 -35 6
-21 8 -35 10 -35 4 0 -5 -4 -10 -9 -10 -5 0 -4 11 2 25 12 26 29 34 25 13z
m262 4 c0 -4 -12 -9 -27 -10 -22 -1 -24 0 -13 8 18 12 40 13 40 2z m263 1 c-7
-2 -21 -2 -30 0 -10 3 -4 5 12 5 17 0 24 -2 18 -5z m4007 -3 c0 -6 -13 -10
-30 -10 -39 0 -39 14 0 17 17 1 30 -2 30 -7z m-4226 -13 c11 -10 2 -25 -50
-81 l-63 -68 -35 12 c-46 15 -52 26 -21 34 35 9 31 21 -7 23 -27 2 -29 0 -13
-7 19 -8 19 -9 -3 -9 -17 -1 -23 4 -20 17 3 13 13 17 46 16 31 -1 42 3 42 14
0 8 -6 12 -15 8 -8 -3 -15 -1 -15 5 0 18 33 23 45 5 8 -10 19 -14 30 -10 10 4
21 1 26 -7 7 -11 9 -11 9 2 0 9 7 22 15 29 8 7 12 16 9 21 -8 14 6 11 20 -4z
m3346 3 c0 -5 9 -10 19 -10 11 0 23 -4 26 -10 8 -13 -11 -13 -52 2 -37 13 -44
28 -13 28 11 0 20 -4 20 -10z m-3690 -4 c0 -11 -19 -15 -25 -6 -3 5 1 10 9 10
9 0 16 -2 16 -4z m4730 -17 c0 -5 -6 -9 -13 -9 -8 0 -14 6 -14 14 0 8 6 12 14
9 7 -3 13 -9 13 -14z m40 11 c0 -5 -5 -10 -11 -10 -5 0 -7 5 -4 10 3 6 8 10
11 10 2 0 4 -4 4 -10z m60 -1 c0 -10 -30 -20 -41 -13 -5 3 -7 9 -5 13 6 9 46
9 46 0z m-5683 -15 c-3 -3 -12 -4 -19 -1 -8 3 -5 6 6 6 11 1 17 -2 13 -5z
m1448 -8 c26 -14 23 -15 -63 -18 -49 -2 -97 -2 -106 0 -30 6 -16 20 20 20 19
0 38 3 41 6 12 11 81 6 108 -8z m-1305 -6 c20 -6 21 -8 5 -8 -11 0 -31 4 -45
8 -20 6 -21 8 -5 8 11 0 31 -4 45 -8z m-355 -10 c-11 -5 -27 -9 -35 -9 -9 0
-8 4 5 9 11 5 27 9 35 9 9 0 8 -4 -5 -9z m188 -10 c-3 -12 -8 -19 -11 -16 -5
6 5 36 12 36 2 0 2 -9 -1 -20z m-258 -11 c-4 -5 0 -9 7 -9 9 0 9 -3 -2 -10
-20 -13 -70 -13 -70 1 0 5 4 8 9 5 14 -9 41 5 41 21 0 8 5 11 10 8 6 -4 8 -11
5 -16z m1047 -9 c6 0 20 8 30 17 14 13 21 14 30 5 7 -7 23 -12 37 -12 47 0 14
-10 -48 -15 -69 -5 -91 0 -91 22 0 12 2 12 16 -1 8 -9 20 -16 26 -16z m198 21
c0 -28 -63 -33 -73 -6 -4 8 6 12 34 12 21 0 39 -3 39 -6z m4164 -7 c10 -26 7
-32 -14 -27 -11 3 -20 14 -20 24 0 23 25 25 34 3z m206 6 c0 -5 -4 -10 -10
-10 -5 0 -10 5 -10 10 0 6 5 10 10 10 6 0 10 -4 10 -10z m-4064 -25 c-8 -8
-23 -14 -33 -14 -17 1 -17 2 0 6 9 2 17 9 17 14 0 5 7 9 16 9 14 0 14 -2 0
-15z m173 -4 c9 -6 -2 -11 -33 -15 -45 -7 -73 -26 -39 -26 17 -1 17 -1 0 -11
-9 -5 -43 -9 -75 -7 l-57 3 33 15 c33 15 42 29 20 31 -7 1 1 5 17 9 42 11 117
11 134 1z m407 -6 c-10 -11 -37 -15 -95 -15 -67 0 -79 2 -75 15 5 12 25 15 96
15 79 0 88 -2 74 -15z m277 8 c-7 -2 -19 -2 -25 0 -7 3 -2 5 12 5 14 0 19 -2
13 -5z m76 3 c-12 -10 -59 -15 -59 -6 0 5 14 10 32 10 17 0 29 -2 27 -4z m211
-40 c0 -6 -7 -2 -15 8 -8 11 -15 25 -15 30 0 6 7 2 15 -8 8 -11 15 -25 15 -30z
m2785 34 c-3 -5 2 -10 11 -10 10 0 15 -2 12 -5 -3 -4 -18 -3 -34 1 -25 6 -26
8 -9 15 27 10 27 10 20 -1z m488 3 c-7 -2 -19 -2 -25 0 -7 3 -2 5 12 5 14 0
19 -2 13 -5z m-4862 -16 c-6 -8 -7 -18 -3 -23 4 -4 -1 -2 -10 5 -24 18 -23 31
3 31 17 0 19 -3 10 -13z m59 -11 c0 -8 -4 -18 -10 -21 -5 -3 -10 3 -10 14 0
12 5 21 10 21 6 0 10 -6 10 -14z m95 4 c3 -5 1 -10 -4 -10 -6 0 -11 5 -11 10
0 6 2 10 4 10 3 0 8 -4 11 -10z m4655 -10 c0 -5 -12 -10 -27 -9 l-28 1 25 8
c14 4 26 8 28 9 1 1 2 -3 2 -9z m-556 -9 c11 -4 15 -10 10 -13 -5 -3 -22 1
-39 8 -22 10 -25 13 -10 13 11 0 29 -4 39 -8z m-5367 -7 c-3 -3 -12 -4 -19 -1
-8 3 -5 6 6 6 11 1 17 -2 13 -5z m5423 -4 c0 -5 -7 -10 -16 -10 -8 0 -12 5 -9
10 3 6 10 10 16 10 5 0 9 -4 9 -10z m186 -18 c1 -7 0 -8 -3 -2 -2 5 -16 10
-29 10 -13 0 -24 4 -24 9 0 14 53 -3 56 -17z m284 2 c0 -8 -4 -12 -10 -9 -5 3
-10 10 -10 16 0 5 5 9 10 9 6 0 10 -7 10 -16z m-4556 -10 c3 -8 0 -21 -7 -29
-6 -7 -32 -36 -56 -64 -24 -28 -47 -48 -52 -45 -5 2 -11 -7 -15 -21 -5 -19
-12 -25 -33 -24 -21 1 -22 2 -6 6 23 6 36 23 28 36 -2 4 -11 2 -20 -4 -12 -11
-13 -9 -8 14 4 16 3 27 -3 27 -5 0 -9 12 -9 28 0 15 2 22 4 16 5 -15 50 -6 57
12 4 10 0 11 -17 5 -29 -11 -47 -3 -47 20 0 23 9 24 35 5 16 -11 25 -12 57 0
37 13 56 6 43 -16 -10 -17 12 -11 26 7 11 13 11 17 1 20 -6 3 -10 9 -6 14 8
14 21 11 28 -7z m4488 -19 c2 -13 10 -19 23 -17 20 2 20 2 1 -9 -15 -9 -21 -9
-24 -1 -2 7 -11 12 -19 12 -12 0 -13 3 -3 15 6 8 8 20 4 27 -5 9 -4 10 4 3 5
-5 12 -19 14 -30z m-4259 18 c-13 -2 -33 -2 -45 0 -13 2 -3 4 22 4 25 0 35 -2
23 -4z m3722 -13 c3 -5 -1 -10 -9 -10 -9 0 -16 5 -16 10 0 6 4 10 9 10 6 0 13
-4 16 -10z m473 -7 c-2 -9 -8 -18 -15 -20 -7 -3 -9 3 -6 16 6 25 26 28 21 4z
m102 7 c-19 -13 -30 -13 -30 0 0 6 10 10 23 10 18 0 19 -2 7 -10z m-4365 -10
c-28 -12 -67 -12 -60 0 3 6 23 10 43 9 30 0 33 -2 17 -9z m129 1 c3 -4 -19 -9
-49 -10 -30 -1 -55 2 -55 7 0 11 98 14 104 3z m3866 5 c0 -2 -9 -6 -20 -9 -11
-3 -18 -1 -14 4 5 9 34 13 34 5z m148 -12 c12 -8 22 -10 22 -5 0 6 5 11 10 11
6 0 10 -7 10 -16 0 -8 4 -13 9 -10 9 6 21 -25 21 -56 0 -20 -25 -14 -34 7 -3
10 0 12 11 8 13 -5 14 -3 4 16 -7 12 -20 21 -29 20 -31 -3 -43 1 -37 11 3 6
-1 10 -9 10 -9 0 -16 5 -16 10 0 14 12 12 38 -6z m-2888 -15 c0 -6 -4 -7 -10
-4 -5 3 -10 11 -10 16 0 6 5 7 10 4 6 -3 10 -11 10 -16z m2500 11 c0 -5 6 -10
13 -10 6 0 17 -11 24 -25 10 -23 9 -25 -16 -25 -16 0 -41 13 -61 30 -28 24
-30 30 -13 25 12 -3 24 -1 28 5 8 13 25 13 25 0z m653 -11 c-4 -16 -8 -17 -14
-7 -13 19 -11 28 5 28 9 0 12 -7 9 -21z m-4928 1 c3 -5 -1 -10 -10 -10 -9 0
-13 5 -10 10 3 6 8 10 10 10 2 0 7 -4 10 -10z m655 -22 c39 -1 36 -2 -20 -8
-59 -6 -62 -7 -32 -14 18 -5 35 -12 37 -16 6 -9 -164 -25 -172 -16 -4 3 7 7
23 7 24 2 22 3 -10 8 -38 6 -39 7 -22 24 10 9 23 17 29 16 9 0 8 -2 0 -6 -22
-8 -14 -23 13 -23 14 0 23 4 19 9 -3 5 4 12 15 16 11 4 18 10 15 15 -3 5 9 5
27 -1 18 -5 53 -10 78 -11z m878 15 c-15 -2 -42 -2 -60 0 -18 2 -6 4 27 4 33
0 48 -2 33 -4z m2977 -3 c3 -5 1 -10 -4 -10 -6 0 -11 5 -11 10 0 6 2 10 4 10
3 0 8 -4 11 -10z m-325 -15 c10 -12 10 -15 -4 -15 -9 0 -16 7 -16 15 0 8 2 15
4 15 2 0 9 -7 16 -15z m-3097 -2 c-35 -2 -91 -2 -125 0 -35 2 -7 3 62 3 69 0
97 -1 63 -3z m520 -10 c-7 -2 -21 -2 -30 0 -10 3 -4 5 12 5 17 0 24 -2 18 -5z
m2982 -9 c13 -14 14 -19 3 -25 -10 -6 -9 -12 7 -24 11 -9 14 -14 8 -10 -8 4
-13 0 -13 -9 0 -8 -4 -17 -9 -20 -5 -3 -8 4 -8 17 0 12 -3 37 -7 55 -9 36 -5
39 19 16z m-3425 -5 c19 -1 -21 -6 -89 -10 -69 -5 -127 -7 -129 -5 -8 9 85 22
133 20 28 -2 66 -4 85 -5z m3380 -5 c0 -7 -8 -10 -20 -7 -11 3 -20 9 -20 14 0
4 9 7 20 6 11 -1 20 -7 20 -13z m-302 -5 c-2 -6 -8 -10 -13 -10 -5 0 -11 4
-13 10 -2 6 4 11 13 11 9 0 15 -5 13 -11z m673 -3 c5 3 9 0 9 -6 0 -15 -23 -7
-26 8 -1 7 0 8 3 2 2 -5 9 -8 14 -4z m-5056 -6 c18 -8 17 -9 -7 -9 -15 -1 -30
4 -33 9 -7 12 12 12 40 0z m122 -8 c2 -19 -43 -45 -60 -35 -6 4 -3 9 7 13 10
3 17 10 16 14 -2 8 19 26 30 26 3 0 6 -8 7 -18z m4716 -2 c6 -24 1 -25 -19 -6
-18 18 -18 26 0 26 7 0 16 -9 19 -20z m-173 0 c0 -5 -6 -10 -14 -10 -8 0 -18
5 -21 10 -3 6 3 10 14 10 12 0 21 -4 21 -10z m130 -5 c0 -8 -7 -15 -16 -15
-14 0 -14 3 -4 15 7 8 14 15 16 15 2 0 4 -7 4 -15z m-4567 -2 c-7 -2 -19 -2
-25 0 -7 3 -2 5 12 5 14 0 19 -2 13 -5z m72 -14 c4 -11 4 -23 1 -26 -3 -4 -6
2 -6 13 0 15 -2 16 -9 5 -5 -7 -14 -10 -20 -7 -8 5 -7 11 2 21 17 20 25 18 32
-6z m4596 -2 c-10 -9 -11 -8 -5 6 3 10 9 15 12 12 3 -3 0 -11 -7 -18z m75 14
c5 -6 22 -12 38 -15 29 -5 48 -16 28 -16 -29 0 -112 23 -112 31 0 12 33 12 46
0z m-4181 -11 l30 -8 -35 -2 -35 -2 30 -8 c41 -11 -146 -11 -205 -1 -32 6 -37
9 -17 10 16 0 26 5 22 11 -7 12 164 12 210 0z m499 0 c-29 -12 -64 -14 -174
-10 l-95 3 65 7 c101 10 229 10 204 0z m79 3 c-7 -2 -21 -2 -30 0 -10 3 -4 5
12 5 17 0 24 -2 18 -5z m3092 -14 c5 -5 1 -9 -13 -9 -12 0 -22 5 -22 12 0 9
-3 9 -12 0 -17 -17 -28 -15 -21 4 6 16 48 12 68 -7z m160 1 c4 -11 10 -18 15
-15 12 7 60 -39 60 -58 0 -8 -7 -18 -16 -21 -14 -5 -15 -4 -4 9 10 12 9 16 -4
21 -9 3 -16 12 -16 19 0 10 -9 11 -41 4 -42 -10 -70 0 -68 25 0 7 2 6 6 -1 2
-7 14 -13 25 -13 17 0 19 4 14 25 -8 31 19 36 29 5z m-4685 0 c0 -5 -5 -10
-11 -10 -5 0 -7 5 -4 10 3 6 8 10 11 10 2 0 4 -4 4 -10z m4765 0 c3 -5 2 -10
-4 -10 -5 0 -13 5 -16 10 -3 6 -2 10 4 10 5 0 13 -4 16 -10z m385 -7 c0 -10
-4 -14 -8 -8 -4 6 -11 13 -16 18 -5 4 -2 7 7 7 10 0 17 -8 17 -17z m-592 -18
c-6 -14 -13 -23 -16 -21 -7 7 9 46 18 46 5 0 4 -11 -2 -25z m-4508 11 c0 -3
-4 -8 -10 -11 -5 -3 -10 -1 -10 4 0 6 5 11 10 11 6 0 10 -2 10 -4z m4820 -16
c19 -16 20 -20 6 -20 -9 0 -19 7 -22 15 -4 8 -10 15 -16 15 -5 0 -6 -4 -3 -10
3 -6 -1 -7 -10 -3 -13 5 -14 7 -3 14 19 12 22 11 48 -11z m-4613 4 c-3 -3 -12
-4 -19 -1 -8 3 -5 6 6 6 11 1 17 -2 13 -5z m66 -19 c-3 -9 0 -21 6 -29 6 -7 8
-16 4 -19 -11 -12 -41 -8 -46 6 -4 9 -8 9 -16 -3 -14 -21 -4 -30 28 -24 16 3
31 2 34 -3 8 -12 -72 -109 -109 -134 -32 -21 -54 -25 -36 -7 17 17 15 33 -3
18 -13 -10 -15 -9 -15 9 0 14 -6 21 -20 21 -11 0 -20 6 -20 13 0 9 -2 9 -9 -1
-7 -11 -9 -11 -14 2 -5 12 0 16 17 16 34 0 38 10 13 31 -17 14 -18 18 -6 19 8
0 20 -5 27 -12 9 -9 12 -8 13 8 1 10 1 24 0 30 -1 10 54 40 61 33 2 -1 13 3
26 10 14 7 22 8 22 1 0 -5 4 -10 10 -10 5 0 7 7 3 16 -3 9 0 20 8 24 17 11 30
3 22 -15z m300 18 c-7 -2 -19 -2 -25 0 -7 3 -2 5 12 5 14 0 19 -2 13 -5z
m3334 -12 c-1 -16 -4 -17 -15 -9 -10 9 -11 13 0 19 17 11 17 12 15 -10z
m-3897 -5 c0 -8 -8 -13 -17 -11 -10 2 -22 4 -28 5 -5 1 -1 5 10 10 29 12 35
12 35 -4z m700 7 c49 -6 52 -8 25 -14 -46 -10 -153 -10 -160 0 -10 17 55 24
135 14z m4245 -3 c-3 -5 3 -10 14 -10 10 0 22 6 24 13 4 9 6 9 6 0 1 -6 -4
-15 -11 -19 -17 -11 -59 -13 -52 -3 3 5 0 9 -5 9 -6 0 -11 5 -11 10 0 6 9 10
21 10 11 0 17 -4 14 -10z m-4868 -15 c0 -8 -8 -15 -18 -15 -12 0 -16 5 -13 15
4 8 12 15 18 15 7 0 13 -7 13 -15z m1376 8 c-7 -2 -19 -2 -25 0 -7 3 -2 5 12
5 14 0 19 -2 13 -5z m-1122 -17 c-7 -8 -21 -12 -34 -8 -20 6 -20 7 8 13 17 4
32 7 34 8 2 0 -2 -5 -8 -13z m4733 5 c4 -5 -3 -7 -14 -4 -23 6 -26 13 -6 13 8
0 17 -4 20 -9z m-4422 -22 c9 -5 42 -9 73 -9 35 0 54 -4 50 -10 -3 -5 -34 -10
-68 -11 -44 0 -56 -3 -42 -9 16 -7 12 -9 -19 -9 -30 -1 -36 -4 -28 -13 8 -10
0 -12 -37 -10 -34 3 -53 -1 -64 -12 -8 -9 -24 -16 -34 -16 -15 0 -16 -2 -3
-10 12 -7 10 -11 -10 -19 -21 -8 -18 -10 25 -9 28 0 40 3 27 5 -43 8 -11 23
51 23 60 0 71 -14 17 -22 -14 -2 22 -8 80 -13 112 -9 104 -21 -15 -24 -43 -1
-56 -4 -45 -11 13 -9 13 -10 0 -11 -8 0 -1 -7 15 -14 31 -14 26 -20 -25 -28
-19 -3 -17 -5 10 -6 71 -3 6 -21 -85 -23 -76 -2 -80 -2 -27 -5 42 -3 62 -8 62
-17 0 -9 -13 -12 -47 -10 -155 11 -204 17 -198 22 3 4 14 7 23 7 9 1 35 3 57
4 l40 2 -30 14 c-29 13 -27 13 45 16 41 1 62 4 45 6 -16 1 -54 6 -83 9 -35 4
-52 10 -49 17 3 7 10 11 16 9 7 -1 9 2 6 8 -4 6 1 20 11 31 17 18 17 20 -2 34
-18 13 -18 14 4 8 13 -3 22 -1 22 6 0 6 -11 13 -25 17 l-26 6 27 15 c15 7 33
12 41 9 7 -3 19 1 27 9 8 8 23 15 33 15 10 0 28 3 41 6 23 7 23 7 2 21 -11 8
-25 11 -32 7 -6 -4 -8 -3 -5 3 7 11 124 5 149 -8z m1158 11 c0 -5 -11 -10 -25
-10 -14 0 -25 5 -25 10 0 6 11 10 25 10 14 0 25 -4 25 -10z m47 4 c-3 -3 -12
-4 -19 -1 -8 3 -5 6 6 6 11 1 17 -2 13 -5z m-1862 -30 c-8 -9 -15 -20 -15 -26
0 -6 -2 -9 -5 -6 -9 8 17 58 27 52 4 -3 1 -12 -7 -20z m4454 19 c-4 -23 3 -32
19 -26 14 5 13 3 -3 -10 -18 -14 -20 -14 -25 4 -3 11 -8 20 -12 20 -26 -2 -29
2 -8 9 14 4 26 8 28 9 1 1 1 -2 1 -6z m469 -19 c2 -1 -10 -1 -25 -1 -15 0 -22
2 -15 4 6 3 9 10 5 16 -4 7 2 5 13 -3 10 -8 20 -15 22 -16z m-4841 0 c-3 -3
-12 -4 -19 -1 -8 3 -5 6 6 6 11 1 17 -2 13 -5z m1288 -4 c-110 -12 -373 -11
-355 0 9 6 102 9 220 8 149 -1 186 -3 135 -8z m442 4 c-3 -3 -12 -4 -19 -1 -8
3 -5 6 6 6 11 1 17 -2 13 -5z m2838 -17 c15 -4 14 -5 -7 -6 -21 -1 -28 4 -28
17 0 11 3 13 8 6 4 -7 16 -14 27 -17z m105 13 c0 -5 -4 -10 -10 -10 -5 0 -10
5 -10 10 0 6 5 10 10 10 6 0 10 -4 10 -10z m74 -7 c3 -8 -2 -13 -14 -13 -11 0
-20 6 -20 13 0 8 7 14 15 14 8 0 16 -6 19 -14z m-610 -2 c3 -5 -7 -11 -22 -14
-32 -6 -42 0 -22 13 19 12 37 13 44 1z m-404 -16 c0 -8 -4 -15 -9 -15 -5 0
-11 7 -15 15 -3 9 0 15 9 15 8 0 15 -7 15 -15z m-2532 -2 c-10 -2 -28 -2 -40
0 -13 2 -5 4 17 4 22 1 32 -1 23 -4z m3462 -19 c0 -12 -5 -14 -17 -9 -10 4
-26 7 -35 7 -10 0 -18 3 -18 9 0 5 16 9 35 9 25 0 35 -4 35 -16z m-470 -25 c0
-5 -4 -9 -10 -9 -5 0 -10 7 -10 16 0 8 5 12 10 9 6 -3 10 -10 10 -16z m796 12
c-4 -5 0 -12 6 -14 8 -3 6 -6 -4 -6 -10 -1 -18 6 -18 14 0 8 5 15 11 15 5 0 8
-4 5 -9z m-602 -22 c-8 -14 -24 -10 -24 6 0 9 6 12 15 9 8 -4 12 -10 9 -15z
m531 11 c3 -5 1 -10 -4 -10 -6 0 -11 5 -11 10 0 6 2 10 4 10 3 0 8 -4 11 -10z
m-5048 -22 c-3 -8 -6 -5 -6 6 -1 11 2 17 5 13 3 -3 4 -12 1 -19z m711 15 c-10
-2 -28 -2 -40 0 -13 2 -5 4 17 4 22 1 32 -1 23 -4z m3582 3 c0 -11 -19 -15
-25 -6 -3 5 1 10 9 10 9 0 16 -2 16 -4z m910 0 c0 -3 -4 -8 -10 -11 -5 -3 -10
-1 -10 4 0 6 5 11 10 11 6 0 10 -2 10 -4z m-4785 -16 c-3 -5 -11 -10 -16 -10
-6 0 -7 5 -4 10 3 6 11 10 16 10 6 0 7 -4 4 -10z m1755 -10 c6 -11 8 -20 6
-20 -3 0 -10 9 -16 20 -6 11 -8 20 -6 20 3 0 10 -9 16 -20z m2512 1 c11 -12
10 -13 -4 -8 -11 4 -18 2 -18 -5 0 -6 -3 -8 -7 -5 -3 4 -12 2 -19 -4 -14 -12
-54 4 -54 22 0 6 5 7 10 4 6 -3 10 -3 10 2 0 13 69 8 82 -6z m-2749 2 c-13 -2
-35 -2 -50 0 -16 2 -5 4 22 4 28 0 40 -2 28 -4z m2421 -14 c-3 -5 10 -12 28
-16 l33 -7 -33 -7 c-19 -4 -44 -4 -57 0 -18 5 -21 10 -14 28 6 15 14 20 28 16
12 -3 18 -9 15 -14z m-4571 4 c-7 -2 -19 -2 -25 0 -7 3 -2 5 12 5 14 0 19 -2
13 -5z m307 -1 c0 -4 -8 -12 -18 -18 -13 -9 -21 -8 -32 4 -13 14 -12 15 3 9 9
-3 19 -2 22 3 7 12 25 13 25 2z m1738 1 c-10 -2 -28 -2 -40 0 -13 2 -5 4 17 4
22 1 32 -1 23 -4z m2922 -9 c0 -2 -12 -4 -27 -4 -21 0 -24 3 -14 9 13 8 41 5
41 -5z m35 -4 c3 -5 1 -10 -4 -10 -6 0 -11 5 -11 10 0 6 2 10 4 10 3 0 8 -4
11 -10z m95 0 c0 -5 -8 -10 -17 -10 -15 0 -16 2 -3 10 19 12 20 12 20 0z m188
-10 c-15 -23 -28 -26 -28 -6 0 8 8 17 18 19 9 3 18 5 20 6 1 0 -3 -8 -10 -19z
m-5093 0 c-3 -5 -13 -10 -21 -10 -8 0 -14 5 -14 10 0 6 9 10 21 10 11 0 17 -4
14 -10z m440 0 c8 -13 -5 -13 -25 0 -13 8 -13 10 2 10 9 0 20 -4 23 -10z
m4715 0 c0 -5 -10 -10 -22 -10 -19 0 -20 2 -8 10 19 13 30 13 30 0z m-5660 -5
c0 -7 -51 -55 -57 -55 -2 0 5 14 17 30 19 27 40 40 40 25z m1865 -5 c-11 -5
-78 -9 -150 -9 -71 0 -121 4 -111 8 28 11 286 12 261 1z m3520 -8 c-3 -3 -11
0 -18 7 -9 10 -8 11 6 5 10 -3 15 -9 12 -12z m-5355 -12 c0 -5 -8 -10 -17 -10
-15 0 -16 2 -3 10 19 12 20 12 20 0z m2397 4 c-3 -3 -12 -4 -19 -1 -8 3 -5 6
6 6 11 1 17 -2 13 -5z m93 2 c0 -11 -19 -15 -25 -6 -3 5 1 10 9 10 9 0 16 -2
16 -4z m1850 -6 c0 -5 -4 -10 -10 -10 -5 0 -10 5 -10 10 0 6 5 10 10 10 6 0
10 -4 10 -10z m459 -14 c9 -11 6 -15 -14 -18 -17 -4 -25 -1 -25 9 0 8 5 11 10
8 6 -3 10 -1 10 4 0 15 5 14 19 -3z m-4095 -18 c-10 -13 -23 -26 -29 -30 -5
-4 -10 -13 -10 -20 0 -17 -44 -38 -64 -30 -12 4 -8 9 14 18 17 7 26 13 20 14
-5 0 -2 5 8 11 25 15 21 29 -10 30 -24 0 -25 1 -8 8 11 5 25 6 32 4 6 -3 20 0
30 6 30 17 37 12 17 -11z m3599 10 c24 1 21 -13 -5 -26 l-23 -11 24 -7 c23 -7
23 -8 5 -14 -10 -4 -29 -4 -41 1 -24 9 -60 -21 -48 -40 8 -14 -1 -14 -26 0
-11 5 -17 14 -14 20 4 5 11 7 16 4 5 -4 9 3 9 14 0 11 9 22 20 26 11 4 20 15
20 26 0 17 4 19 23 13 12 -4 30 -7 40 -6z m642 2 c-6 -9 21 -15 52 -11 6 1 10
-5 9 -14 -1 -9 -5 -15 -9 -15 -4 0 -21 0 -37 0 -34 0 -52 26 -29 41 18 11 22
11 14 -1z m575 0 c0 -5 -8 -10 -17 -10 -15 0 -16 2 -3 10 19 12 20 12 20 0z
m-1120 -11 c0 -6 10 -8 23 -5 12 3 16 3 9 0 -6 -3 -9 -11 -5 -17 14 -22 11
-38 -5 -35 -10 2 -16 11 -14 21 2 14 -1 15 -22 8 -27 -11 -36 -6 -36 21 0 13
7 18 25 18 14 0 25 -5 25 -11z m676 2 c-4 -5 0 -11 6 -14 7 -2 10 -7 7 -11 -3
-3 -14 3 -24 14 -17 18 -17 20 -1 20 9 0 15 -4 12 -9z m-3516 -11 c11 -7 7
-10 -18 -10 -20 0 -31 4 -27 10 8 13 26 13 45 0z m140 1 c-8 -6 -32 -9 -53 -9
-26 0 -35 3 -26 9 8 5 32 9 54 9 28 0 36 -3 25 -9z m130 -1 c0 -5 -7 -10 -15
-10 -8 0 -15 5 -15 10 0 6 7 10 15 10 8 0 15 -4 15 -10z m-1390 -15 c11 -13
10 -14 -4 -9 -9 3 -16 10 -16 15 0 13 6 11 20 -6z m448 8 c-16 -2 -40 -2 -55
0 -16 2 -3 4 27 4 30 0 43 -2 28 -4z m2122 3 c0 -2 -8 -10 -17 -17 -16 -13
-17 -12 -4 4 13 16 21 21 21 13z m2540 0 c0 -3 -4 -8 -10 -11 -5 -3 -10 -1
-10 4 0 6 5 11 10 11 6 0 10 -2 10 -4z m-5042 -23 c-1 -10 1 -24 5 -30 5 -8 3
-13 -7 -13 -19 0 -33 23 -18 28 7 2 12 10 12 18 0 8 3 14 6 14 3 0 4 -8 2 -17z
m130 10 c-10 -2 -18 -8 -18 -11 0 -4 -12 -8 -26 -9 -28 -1 -21 12 11 20 26 6
56 6 33 0z m4561 -15 c9 -15 8 -18 -10 -18 -11 0 -17 5 -14 10 3 6 -3 10 -14
10 -12 0 -21 4 -21 10 0 17 47 7 59 -12z m-5444 -6 c-3 -3 -11 0 -18 7 -9 10
-8 11 6 5 10 -3 15 -9 12 -12z m375 8 c12 -8 11 -10 -7 -10 -13 0 -23 5 -23
10 0 13 11 13 30 0z m4409 -9 c9 -16 7 -18 -14 -18 -28 0 -27 -1 -19 21 8 21
21 20 33 -3z m233 4 c0 -5 -5 -11 -11 -13 -6 -2 -11 4 -11 13 0 9 5 15 11 13
6 -2 11 -8 11 -13z m623 5 c-3 -5 -12 -10 -18 -10 -7 0 -6 4 3 10 19 12 23 12
15 0z m49 -6 c3 -8 2 -12 -4 -9 -6 3 -10 10 -10 16 0 14 7 11 14 -7z m-5379
-4 c3 -5 1 -10 -4 -10 -6 0 -11 5 -11 10 0 6 2 10 4 10 3 0 8 -4 11 -10z m779
-5 c-6 -16 -22 -19 -48 -9 -24 9 -9 24 24 24 22 0 28 -4 24 -15z m2196 0 c0
-8 -6 -15 -14 -15 -8 0 -16 7 -20 15 -4 10 1 15 14 15 11 0 20 -7 20 -15z
m1850 -12 c0 -13 -3 -13 -15 -3 -8 7 -15 16 -15 21 0 5 7 6 15 3 8 -4 15 -13
15 -21z m198 5 c15 -15 16 -32 2 -23 -5 3 -10 0 -11 -7 0 -12 -17 18 -18 35
-1 11 14 8 27 -5z m-928 -2 c0 -3 -4 -8 -10 -11 -5 -3 -10 -1 -10 4 0 6 5 11
10 11 6 0 10 -2 10 -4z m120 -5 c0 -18 -18 -21 -30 -6 -10 13 -9 15 9 15 11 0
21 -4 21 -9z m561 -18 l24 -27 -24 15 c-14 9 -27 21 -29 27 -6 19 3 14 29 -15z
m589 23 c0 -2 -7 -6 -15 -10 -8 -3 -15 -1 -15 4 0 6 7 10 15 10 8 0 15 -2 15
-4z m32 -38 c-9 -9 -12 -7 -12 12 0 19 3 21 12 12 9 -9 9 -15 0 -24z m-4662
10 c0 -4 -6 -8 -14 -8 -8 0 -17 4 -20 8 -2 4 4 8 15 8 10 0 19 -4 19 -8z
m3770 -3 c0 -8 -7 -15 -15 -15 -16 0 -20 12 -8 23 11 12 23 8 23 -8z m365 -3
c-3 -3 -11 0 -18 7 -9 10 -8 11 6 5 10 -3 15 -9 12 -12z m565 8 c0 -5 -5 -10
-11 -10 -5 0 -7 5 -4 10 3 6 8 10 11 10 2 0 4 -4 4 -10z m110 6 c0 -11 -19
-15 -25 -6 -3 5 1 10 9 10 9 0 16 -2 16 -4z m-4599 -15 c-11 -7 -9 -10 10 -14
14 -2 3 -5 -26 -7 -37 -2 -25 -5 49 -11 54 -4 101 -11 104 -14 12 -12 -10 -17
-74 -18 -45 0 -60 -3 -46 -8 28 -11 28 -15 0 -15 -65 -1 -161 -7 -148 -10 8
-1 54 -8 102 -14 131 -18 142 -35 21 -34 -54 1 -77 -1 -50 -3 26 -2 47 -8 47
-13 0 -4 10 -6 23 -3 12 3 19 2 15 -2 -14 -15 -130 -15 -252 0 -68 8 -127 15
-130 15 -3 0 2 16 12 35 10 20 25 35 35 35 10 0 25 6 33 14 12 13 12 16 -1 24
-13 7 -14 10 -3 19 16 13 119 23 112 11 -3 -4 19 -7 48 -6 36 1 42 3 21 5 -61
8 -34 23 40 23 46 0 67 -4 58 -9z m3164 -1 c3 -5 2 -10 -4 -10 -5 0 -13 5 -16
10 -3 6 -2 10 4 10 5 0 13 -4 16 -10z m1260 0 c3 -5 1 -10 -4 -10 -6 0 -11 5
-11 10 0 6 2 10 4 10 3 0 8 -4 11 -10z m-5105 -10 c0 -5 -5 -10 -11 -10 -5 0
-7 5 -4 10 3 6 8 10 11 10 2 0 4 -4 4 -10z m2170 0 c0 -13 -11 -13 -30 0 -12
8 -11 10 8 10 12 0 22 -4 22 -10z m2160 0 c11 -7 5 -10 -23 -10 -23 0 -36 4
-32 10 8 13 35 13 55 0z m50 0 c0 -5 -7 -7 -15 -4 -8 4 -15 8 -15 10 0 2 7 4
15 4 8 0 15 -4 15 -10z m-4245 -28 c-8 -8 -25 10 -19 20 4 6 9 5 15 -3 4 -7 6
-15 4 -17z m2515 18 c0 -5 -2 -10 -4 -10 -3 0 -8 5 -11 10 -3 6 -1 10 4 10 6
0 11 -4 11 -10z m2467 -22 c-3 -8 -6 -5 -6 6 -1 11 2 17 5 13 3 -3 4 -12 1
-19z m-5012 2 c3 -5 1 -10 -4 -10 -6 0 -11 5 -11 10 0 6 2 10 4 10 3 0 8 -4
11 -10z m150 0 c8 -13 -5 -13 -25 0 -13 8 -13 10 2 10 9 0 20 -4 23 -10z
m3736 -50 c16 0 18 -2 7 -14 -16 -17 -53 -2 -42 17 4 7 -1 4 -12 -5 -18 -15
-20 -15 -43 3 -23 19 -23 20 -5 33 10 8 24 12 30 9 7 -2 16 1 20 9 5 8 11 2
16 -20 6 -23 14 -32 29 -32z m412 49 c21 -5 41 -17 44 -25 7 -19 53 -18 53 1
0 8 6 15 14 15 21 0 28 -17 10 -24 -8 -3 -12 -11 -8 -17 4 -8 3 -9 -4 -5 -7 4
-12 2 -12 -5 0 -8 -4 -8 -15 1 -8 7 -24 10 -35 7 -21 -5 -74 16 -97 39 -27 26
-11 30 50 13z m467 0 c0 -6 7 -9 15 -5 8 3 15 2 15 -3 0 -16 -13 -20 -31 -10
-20 10 -26 29 -9 29 6 0 10 -5 10 -11z m-5270 -9 c0 -5 -8 -10 -17 -10 -15 0
-16 2 -3 10 19 12 20 12 20 0z m5345 0 c-3 -5 -10 -10 -16 -10 -5 0 -9 5 -9
10 0 6 7 10 16 10 8 0 12 -4 9 -10z m-5188 -6 c-3 -3 -12 -4 -19 -1 -8 3 -5 6
6 6 11 1 17 -2 13 -5z m200 -8 c0 -8 -6 -12 -14 -9 -7 3 -10 9 -7 14 8 14 21
11 21 -5z m1402 -2 c10 -9 -35 -3 -49 6 -11 8 -7 9 15 4 17 -4 32 -8 34 -10z
m2656 6 c-3 -5 -10 -10 -16 -10 -5 0 -9 5 -9 10 0 6 7 10 16 10 8 0 12 -4 9
-10z m700 0 c3 -5 -3 -10 -15 -10 -12 0 -18 5 -15 10 3 6 10 10 15 10 5 0 12
-4 15 -10z m265 6 c0 -3 -4 -8 -10 -11 -5 -3 -10 -1 -10 4 0 6 5 11 10 11 6 0
10 -2 10 -4z m-4730 -10 c0 -2 -7 -9 -15 -16 -12 -10 -15 -10 -15 4 0 9 7 16
15 16 8 0 15 -2 15 -4z m1167 -2 c-3 -3 -12 -4 -19 -1 -8 3 -5 6 6 6 11 1 17
-2 13 -5z m-1913 -19 c3 -8 1 -15 -4 -15 -6 0 -10 7 -10 15 0 8 2 15 4 15 2 0
6 -7 10 -15z m358 0 c0 -5 -5 -11 -10 -13 -5 -1 -9 4 -9 13 0 9 4 14 9 13 5
-2 10 -8 10 -13z m263 -5 c3 -5 1 -10 -4 -10 -6 0 -11 5 -11 10 0 6 2 10 4 10
3 0 8 -4 11 -10z m73 -21 c11 0 12 -2 4 -6 -6 -2 -10 -9 -6 -14 3 -5 -6 -4
-20 2 -21 10 -24 15 -14 27 8 9 14 10 16 3 2 -6 11 -11 20 -12z m3852 11 c0
-5 -7 -10 -15 -10 -8 0 -15 5 -15 10 0 6 7 10 15 10 8 0 15 -4 15 -10z m-3916
-58 c31 -23 32 -29 9 -54 -21 -23 -43 -23 -44 0 0 14 -2 14 -7 2 -7 -15 -42
-24 -42 -11 0 4 7 16 15 27 18 24 19 44 1 44 -8 0 -17 7 -20 16 -8 21 -8 24 4
24 6 0 10 -7 10 -15 0 -25 30 -17 31 8 0 22 0 22 9 1 4 -12 20 -30 34 -42z
m4109 41 c-7 -2 -21 -2 -30 0 -10 3 -4 5 12 5 17 0 24 -2 18 -5z m-4588 -13
c-3 -5 -10 -10 -16 -10 -5 0 -9 5 -9 10 0 6 7 10 16 10 8 0 12 -4 9 -10z m45
2 c0 -13 -12 -22 -22 -16 -10 6 -1 24 13 24 5 0 9 -4 9 -8z m1745 -12 c18 -20
17 -20 -121 -19 -90 0 -128 4 -109 9 51 14 136 20 130 10 -4 -6 1 -10 10 -10
9 0 14 4 10 9 -5 9 14 18 46 20 9 0 24 -8 34 -19z m2603 8 c-2 -6 -10 -13 -16
-14 -7 -1 -8 0 -2 3 5 2 8 9 4 14 -3 5 0 9 6 9 7 0 10 -5 8 -12z m-4498 -8 c0
-5 -7 -10 -16 -10 -8 0 -12 5 -9 10 3 6 10 10 16 10 5 0 9 -4 9 -10z m4460 -5
c0 -8 -5 -15 -11 -15 -5 0 -7 -4 -4 -10 11 -18 -4 -11 -25 12 -16 17 -23 19
-32 10 -15 -15 -38 -16 -38 -1 0 5 4 8 8 5 4 -2 14 -1 20 3 24 15 82 12 82 -4z
m170 -22 c0 -19 -6 -16 -24 12 -17 25 -16 25 4 13 11 -7 20 -18 20 -25z m890
27 c0 -5 -2 -10 -4 -10 -3 0 -8 5 -11 10 -3 6 -1 10 4 10 6 0 11 -4 11 -10z
m-4890 -10 c0 -5 -9 -10 -21 -10 -11 0 -17 5 -14 10 3 6 13 10 21 10 8 0 14
-4 14 -10z m1389 6 c-11 -9 -100 -15 -94 -6 3 6 27 10 52 10 26 0 44 -2 42 -4z
m2686 -18 c4 -13 7 -26 6 -30 -2 -13 8 -9 29 12 25 25 40 25 47 1 4 -17 9 -18
36 -9 18 6 38 15 45 21 7 5 15 7 19 3 3 -3 1 -6 -5 -6 -6 0 -9 -11 -6 -25 4
-25 -4 -30 -47 -27 -12 1 -15 -4 -12 -17 3 -11 -2 -21 -11 -24 -11 -5 -16 -1
-16 13 0 11 -7 20 -15 20 -9 0 -18 7 -22 16 -3 8 -12 13 -19 10 -19 -7 -70 16
-68 32 1 6 2 17 3 22 2 19 29 10 36 -12z m107 0 c-7 -7 -12 -8 -12 -2 0 14 12
26 19 19 2 -3 -1 -11 -7 -17z m778 18 c0 -2 -7 -6 -15 -10 -8 -3 -15 -1 -15 4
0 6 7 10 15 10 8 0 15 -2 15 -4z m-333 -28 c-3 -8 -6 -5 -6 6 -1 11 2 17 5 13
3 -3 4 -12 1 -19z m-5172 2 c3 -5 1 -10 -4 -10 -6 0 -11 5 -11 10 0 6 2 10 4
10 3 0 8 -4 11 -10z m965 -31 c3 -3 12 -9 20 -12 8 -3 -34 -3 -95 0 -84 4
-118 10 -142 25 -18 11 -33 21 -33 22 0 5 246 -29 250 -35z m3260 -1 c0 -4 -4
-8 -10 -8 -5 0 -10 4 -10 9 0 5 -3 18 -6 28 -5 16 -4 16 10 -1 9 -11 16 -23
16 -28z m1530 28 c0 -3 -4 -8 -10 -11 -5 -3 -10 -1 -10 4 0 6 5 11 10 11 6 0
10 -2 10 -4z m-5900 -10 c0 -11 -19 -15 -25 -6 -3 5 1 10 9 10 9 0 16 -2 16
-4z m235 -6 c3 -5 1 -10 -4 -10 -6 0 -11 5 -11 10 0 6 2 10 4 10 3 0 8 -4 11
-10z m3055 -10 c-7 -4 -16 -14 -21 -21 -6 -10 -9 -6 -9 13 0 22 4 25 21 21 14
-4 17 -8 9 -13z m1750 10 c0 -5 -9 -10 -21 -10 -11 0 -17 5 -14 10 3 6 13 10
21 10 8 0 14 -4 14 -10z m-4860 -8 c0 -5 -7 -9 -15 -9 -8 0 -15 4 -15 9 0 4 7
8 15 8 8 0 15 -4 15 -8z m-210 -24 c0 -13 -23 -5 -28 10 -2 7 2 10 12 6 9 -3
16 -11 16 -16z m366 2 c29 0 32 -16 4 -23 -19 -5 -41 18 -39 40 0 4 3 2 6 -4
2 -7 16 -13 29 -13z m489 10 c-3 -5 -13 -10 -21 -10 -8 0 -14 5 -14 10 0 6 9
10 21 10 11 0 17 -4 14 -10z m1932 4 c-3 -3 -12 -4 -19 -1 -8 3 -5 6 6 6 11 1
17 -2 13 -5z m-2247 -25 c0 -17 5 -20 23 -16 31 8 71 -32 51 -51 -11 -10 -14
-10 -14 2 0 18 -24 15 -48 -7 -23 -21 -39 -23 -22 -2 6 8 10 20 7 27 -4 8 -6
7 -6 -4 -1 -9 -8 -21 -17 -26 -8 -5 -17 -19 -18 -33 -7 -57 -15 -69 -47 -62
-18 3 -29 1 -29 -6 0 -6 -8 -11 -17 -11 -13 0 -14 3 -5 12 7 7 12 18 12 25 0
7 9 22 21 34 27 27 21 32 -19 17 -28 -11 -34 -10 -49 6 -17 17 -16 17 22 12
22 -3 34 -3 28 0 -15 7 -18 44 -3 44 5 0 7 -7 3 -15 -5 -14 0 -13 31 2 29 13
33 19 21 25 -30 18 -16 30 27 23 35 -6 40 -5 35 9 -4 9 -2 16 3 16 6 0 10 -9
10 -21z m4960 11 c-8 -5 -19 -10 -25 -10 -5 0 -3 5 5 10 8 5 20 10 25 10 6 0
3 -5 -5 -10z m-5307 -7 c-7 -2 -19 -2 -25 0 -7 3 -2 5 12 5 14 0 19 -2 13 -5z
m47 -8 c0 -2 -7 -5 -15 -9 -9 -3 -15 0 -15 9 0 9 6 12 15 9 8 -4 15 -7 15 -9z
m4495 5 c-3 -5 -13 -10 -21 -10 -8 0 -12 5 -9 10 3 6 13 10 21 10 8 0 12 -4 9
-10z m82 -5 c0 -19 -25 -27 -45 -15 -16 9 -16 9 1 10 9 0 17 5 17 10 0 6 6 10
13 10 8 0 14 -7 14 -15z m-4537 -4 c0 -5 10 -11 23 -13 12 -2 21 -9 20 -16 -4
-16 24 -16 30 1 2 6 8 9 13 4 4 -4 1 -15 -8 -23 -14 -15 -18 -14 -44 3 -16 10
-37 26 -46 36 -15 14 -15 17 -3 17 8 0 15 -4 15 -9z m4655 -11 c-3 -5 -2 -10
3 -10 6 0 13 -7 16 -16 5 -12 1 -14 -17 -8 -12 3 -23 8 -25 9 -6 5 11 35 20
35 5 0 6 -4 3 -10z m1000 0 c3 -6 -1 -7 -9 -4 -18 7 -21 14 -7 14 6 0 13 -4
16 -10z m-373 -25 c-3 -20 -7 -23 -23 -15 -22 12 -15 40 11 40 13 0 16 -6 12
-25z m-5862 5 c0 -5 -4 -10 -10 -10 -5 0 -10 5 -10 10 0 6 5 10 10 10 6 0 10
-4 10 -10z m5482 -12 c-8 -8 -8 -15 -1 -24 6 -7 6 -14 1 -18 -6 -3 -15 0 -21
7 -8 10 -6 19 5 36 9 12 19 20 22 16 3 -3 0 -11 -6 -17z m448 1 c0 -5 -4 -9
-10 -9 -5 0 -10 7 -10 16 0 8 5 12 10 9 6 -3 10 -10 10 -16z m115 11 c3 -5 2
-10 -4 -10 -5 0 -13 5 -16 10 -3 6 -2 10 4 10 5 0 13 -4 16 -10z m-5535 -9 c0
-6 -4 -13 -10 -16 -5 -3 -10 1 -10 9 0 9 5 16 10 16 6 0 10 -4 10 -9z m1617 3
c-3 -3 -12 -4 -19 -1 -8 3 -5 6 6 6 11 1 17 -2 13 -5z m43 -4 c-13 -9 -13 -10
0 -10 13 -1 13 -2 -1 -10 -9 -5 -28 -6 -45 0 l-29 8 28 1 c16 1 26 5 22 11 -3
6 4 10 17 10 18 0 20 -2 8 -10z m3274 -4 c-3 -8 -12 -12 -20 -9 -21 8 -17 23
6 23 13 0 18 -5 14 -14z m556 4 c0 -5 -10 -10 -22 -10 -19 0 -20 2 -8 10 19
13 30 13 30 0z m-4453 -6 c-3 -3 -12 -4 -19 -1 -8 3 -5 6 6 6 11 1 17 -2 13
-5z m680 -10 c-3 -3 -12 -4 -19 -1 -8 3 -5 6 6 6 11 1 17 -2 13 -5z m2836 -24
c23 -27 22 -33 -3 -18 -17 11 -22 10 -29 -1 -6 -9 -11 -10 -15 -3 -4 6 -14 9
-24 6 -14 -5 -14 -4 -2 4 8 6 17 9 21 6 4 -2 9 3 13 11 7 20 18 19 39 -5z
m-3655 3 c-10 -2 -28 -2 -40 0 -13 2 -5 4 17 4 22 1 32 -1 23 -4z m4622 -3 c0
-5 -2 -10 -4 -10 -3 0 -8 5 -11 10 -3 6 -1 10 4 10 6 0 11 -4 11 -10z m-825
-10 c3 -5 2 -10 -4 -10 -5 0 -13 5 -16 10 -3 6 -2 10 4 10 5 0 13 -4 16 -10z
m370 0 c3 -6 -1 -7 -9 -4 -18 7 -21 14 -7 14 6 0 13 -4 16 -10z m300 0 c3 -5
1 -10 -4 -10 -6 0 -11 5 -11 10 0 6 2 10 4 10 3 0 8 -4 11 -10z m-5323 -60 c8
-1 5 -6 -6 -15 -25 -19 -36 -19 -36 0 0 8 -7 15 -15 15 -8 0 -15 5 -15 10 0 6
-6 10 -14 10 -8 0 -17 4 -20 8 -3 5 5 8 17 7 12 -1 28 5 36 13 12 12 16 9 27
-17 7 -17 19 -31 26 -31z m48 46 c0 -3 -4 -8 -10 -11 -5 -3 -10 -1 -10 4 0 6
5 11 10 11 6 0 10 -2 10 -4z m490 0 c0 -3 -4 -8 -10 -11 -5 -3 -10 -1 -10 4 0
6 5 11 10 11 6 0 10 -2 10 -4z m2689 -17 c-19 -12 -47 -11 -55 2 -4 7 0 9 14
5 11 -4 23 -2 27 4 3 6 11 7 17 4 6 -4 5 -10 -3 -15z m41 1 c0 -5 -4 -10 -10
-10 -5 0 -10 5 -10 10 0 6 5 10 10 10 6 0 10 -4 10 -10z m1184 -6 c3 -8 2 -12
-4 -9 -6 3 -10 10 -10 16 0 14 7 11 14 -7z m146 -6 c0 -19 -2 -20 -10 -8 -13
19 -13 30 0 30 6 0 10 -10 10 -22z m28 -3 c-3 -3 -9 2 -12 12 -6 14 -5 15 5 6
7 -7 10 -15 7 -18z m354 3 c-7 -7 -12 -8 -12 -2 0 14 12 26 19 19 2 -3 -1 -11
-7 -17z m-5220 -10 c-6 -6 -15 -8 -19 -4 -4 4 -1 11 7 16 19 12 27 3 12 -12z
m518 6 c0 -2 -7 -4 -15 -4 -8 0 -15 4 -15 10 0 5 7 7 15 4 8 -4 15 -8 15 -10z
m615 6 c-3 -5 -12 -10 -18 -10 -7 0 -6 4 3 10 19 12 23 12 15 0z m3372 -12
c-3 -8 -6 -5 -6 6 -1 11 2 17 5 13 3 -3 4 -12 1 -19z m-4409 3 c11 -7 11 -9
-1 -14 -16 -6 -27 0 -27 15 0 10 11 10 28 -1z m4562 -6 c0 -9 -6 -12 -16 -8
-13 5 -13 7 -2 14 17 11 18 11 18 -6z m455 -5 c3 -5 1 -10 -4 -10 -6 0 -11 5
-11 10 0 6 2 10 4 10 3 0 8 -4 11 -10z m-4775 -11 c0 -5 5 -7 12 -3 6 4 8 3 4
-4 -3 -5 0 -12 6 -15 8 -2 9 -8 4 -13 -5 -5 -11 -4 -13 4 -3 6 -14 12 -26 13
-13 0 -16 3 -8 6 11 5 11 7 0 14 -11 7 -10 9 4 9 9 0 17 -5 17 -11z m4591 -9
c13 -10 18 -19 12 -20 -7 0 -13 -7 -13 -15 0 -18 -11 -19 -45 -3 -24 11 -33
37 -18 51 12 13 41 7 64 -13z m-4771 -8 c-1 -22 -18 -32 -41 -23 -24 10 -24
10 -1 10 13 1 22 7 22 17 0 8 5 12 10 9 6 -3 10 -9 10 -13z m4634 -16 c-3 -9
-13 -16 -22 -16 -13 0 -12 3 3 20 20 23 29 21 19 -4z m-4284 -1 c0 -19 -16
-19 -24 0 -3 9 0 15 9 15 8 0 15 -7 15 -15z m4459 -6 c-22 -13 -31 -11 -17 5
7 8 17 12 22 9 4 -3 2 -9 -5 -14z m831 1 c0 -5 -7 -10 -16 -10 -8 0 -12 5 -9
10 3 6 10 10 16 10 5 0 9 -4 9 -10z"/>
<path d="M1840 1850 c0 -5 5 -10 11 -10 5 0 7 5 4 10 -3 6 -8 10 -11 10 -2 0
-4 -4 -4 -10z"/>
<path d="M1425 1830 c3 -5 16 -10 28 -9 21 0 21 1 2 9 -28 12 -37 12 -30 0z"/>
<path d="M1593 1833 c9 -2 25 -2 35 0 9 3 1 5 -18 5 -19 0 -27 -2 -17 -5z"/>
<path d="M1133 1823 c9 -2 25 -2 35 0 9 3 1 5 -18 5 -19 0 -27 -2 -17 -5z"/>
<path d="M1088 1793 c6 -2 18 -2 25 0 6 3 1 5 -13 5 -14 0 -19 -2 -12 -5z"/>
<path d="M563 1753 c15 -2 37 -2 50 0 12 2 0 4 -28 4 -27 0 -38 -2 -22 -4z"/>
<path d="M2348 1693 c7 -3 16 -2 19 1 4 3 -2 6 -13 5 -11 0 -14 -3 -6 -6z"/>
<path d="M1198 1673 c18 -2 45 -2 60 0 15 2 0 4 -33 4 -33 0 -45 -2 -27 -4z"/>
<path d="M2365 1660 c3 -5 8 -10 11 -10 2 0 4 5 4 10 0 6 -5 10 -11 10 -5 0
-7 -4 -4 -10z"/>
<path d="M858 1643 c12 -2 32 -2 45 0 12 2 2 4 -23 4 -25 0 -35 -2 -22 -4z"/>
<path d="M888 1628 c-59 -3 -115 -11 -125 -17 -23 -14 243 -6 299 9 76 21 49
22 -174 8z"/>
<path d="M1118 1613 c7 -3 16 -2 19 1 4 3 -2 6 -13 5 -11 0 -14 -3 -6 -6z"/>
<path d="M465 1550 c-6 -10 2 -14 20 -10 6 1 28 5 50 10 l40 8 -52 1 c-28 1
-55 -3 -58 -9z"/>
<path d="M1690 1520 c-12 -8 -9 -10 13 -10 15 0 27 5 27 10 0 13 -20 13 -40 0z"/>
<path d="M1758 1523 c12 -2 32 -2 45 0 12 2 2 4 -23 4 -25 0 -35 -2 -22 -4z"/>
<path d="M310 1500 c-17 -6 -9 -7 25 -3 28 3 52 7 54 9 8 7 -54 2 -79 -6z"/>
<path d="M1245 1498 c-22 -5 -44 -13 -49 -18 -12 -12 56 -2 109 16 36 12 37
13 10 12 -16 -1 -48 -6 -70 -10z"/>
<path d="M640 1480 c0 -5 5 -10 10 -10 6 0 10 5 10 10 0 6 -4 10 -10 10 -5 0
-10 -4 -10 -10z"/>
<path d="M1595 1480 c3 -5 0 -10 -7 -10 -11 0 -11 -2 0 -9 7 -4 24 -6 38 -3
l25 4 -27 14 c-31 17 -37 17 -29 4z"/>
<path d="M1225 1455 c-27 -12 -28 -13 -7 -14 13 -1 21 -5 18 -9 -7 -12 81 -13
111 -1 12 5 23 13 23 19 0 16 -31 12 -51 -6 -22 -19 -51 -12 -43 11 8 19 -11
19 -51 0z"/>
<path d="M1888 1453 c7 -3 16 -2 19 1 4 3 -2 6 -13 5 -11 0 -14 -3 -6 -6z"/>
<path d="M1423 1433 c9 -2 23 -2 30 0 6 3 -1 5 -18 5 -16 0 -22 -2 -12 -5z"/>
<path d="M1508 1423 c6 -2 18 -2 25 0 6 3 1 5 -13 5 -14 0 -19 -2 -12 -5z"/>
<path d="M1565 1420 c3 -5 12 -10 20 -10 8 0 17 5 20 10 4 6 -5 10 -20 10 -15
0 -24 -4 -20 -10z"/>
<path d="M1322 1399 c18 -12 65 -11 72 0 4 5 -14 9 -39 9 -28 -1 -41 -4 -33
-9z"/>
<path d="M2018 1383 c7 -3 16 -2 19 1 4 3 -2 6 -13 5 -11 0 -14 -3 -6 -6z"/>
<path d="M1940 1355 c0 -8 4 -15 10 -15 5 0 7 7 4 15 -4 8 -8 15 -10 15 -2 0
-4 -7 -4 -15z"/>
<path d="M1208 1343 c7 -3 16 -2 19 1 4 3 -2 6 -13 5 -11 0 -14 -3 -6 -6z"/>
<path d="M5948 1853 c6 -2 18 -2 25 0 6 3 1 5 -13 5 -14 0 -19 -2 -12 -5z"/>
<path d="M6020 1530 c0 -5 7 -10 16 -10 8 0 12 5 9 10 -3 6 -10 10 -16 10 -5
0 -9 -4 -9 -10z"/>
<path d="M6230 1349 c-7 -13 -7 -19 0 -19 5 0 10 4 10 9 0 5 9 7 20 4 11 -3
20 -1 20 5 0 20 -40 21 -50 1z"/>
<path d="M6040 1350 c0 -5 4 -10 9 -10 6 0 13 5 16 10 3 6 -1 10 -9 10 -9 0
-16 -4 -16 -10z"/>
<path d="M6198 1313 c7 -3 16 -2 19 1 4 3 -2 6 -13 5 -11 0 -14 -3 -6 -6z"/>
<path d="M6288 1253 c6 -2 18 -2 25 0 6 3 1 5 -13 5 -14 0 -19 -2 -12 -5z"/>
<path d="M1698 1403 c7 -3 16 -2 19 1 4 3 -2 6 -13 5 -11 0 -14 -3 -6 -6z"/>
<path d="M1770 1089 c0 -5 5 -7 10 -4 6 3 10 8 10 11 0 2 -4 4 -10 4 -5 0 -10
-5 -10 -11z"/>
<path d="M1580 930 c-9 -6 -10 -10 -3 -10 6 0 15 5 18 10 8 12 4 12 -15 0z"/>
<path d="M1352 731 c-1 -25 -1 -25 13 -7 18 24 19 33 2 33 -7 0 -14 -12 -15
-26z"/>
<path d="M1400 715 c-7 -8 -16 -12 -21 -9 -5 3 -9 -4 -9 -16 0 -20 1 -20 30
-5 34 18 44 19 35 4 -4 -6 2 -5 14 3 24 15 28 30 6 22 -8 -4 -15 -1 -15 5 0
16 -25 14 -40 -4z"/>
<path d="M1355 650 c3 -5 8 -10 11 -10 2 0 4 5 4 10 0 6 -5 10 -11 10 -5 0 -7
-4 -4 -10z"/>
<path d="M1778 583 c7 -3 16 -2 19 1 4 3 -2 6 -13 5 -11 0 -14 -3 -6 -6z"/>
<path d="M5775 650 c3 -5 11 -10 16 -10 6 0 7 5 4 10 -3 6 -11 10 -16 10 -6 0
-7 -4 -4 -10z"/>
<path d="M1432 439 c10 -7 10 -11 0 -21 -27 -27 -13 -38 46 -38 33 0 52 4 44
8 -14 10 -6 42 12 43 6 0 1 4 -12 10 -28 11 -109 9 -90 -2z"/>
<path d="M1416 353 c20 -15 64 -17 64 -4 0 5 -18 11 -41 13 -35 3 -38 2 -23
-9z"/>
<path d="M917 184 c-4 -4 -4 -10 -1 -15 6 -10 34 0 34 12 0 10 -24 12 -33 3z"/>
<path d="M975 3510 c-3 -5 1 -10 10 -10 9 0 13 5 10 10 -3 6 -8 10 -10 10 -2
0 -7 -4 -10 -10z"/>
<path d="M461 2619 c-13 -5 -32 -7 -41 -4 -13 4 -20 -4 -28 -34 -7 -21 -12
-41 -12 -44 0 -8 68 2 102 15 29 11 43 45 26 65 -12 15 -15 15 -47 2z"/>
<path d="M780 2520 c0 -5 5 -10 11 -10 5 0 7 5 4 10 -3 6 -8 10 -11 10 -2 0
-4 -4 -4 -10z"/>
<path d="M735 2499 c-11 -17 1 -21 15 -4 8 9 8 15 2 15 -6 0 -14 -5 -17 -11z"/>
<path d="M3453 2363 c9 -2 23 -2 30 0 6 3 -1 5 -18 5 -16 0 -22 -2 -12 -5z"/>
<path d="M2400 2345 c-312 -49 -494 -85 -545 -109 -16 -8 -70 -19 -120 -24
-72 -8 -101 -16 -145 -42 -30 -17 -44 -28 -30 -24 14 4 32 7 40 6 35 -3 221
-1 294 3 88 4 116 10 377 76 20 5 47 9 60 9 13 0 35 6 49 13 14 7 72 21 130
31 105 18 172 39 189 60 14 16 -195 17 -299 1z"/>
<path d="M1802 2340 c-45 -5 -70 -13 -85 -29 l-21 -21 30 0 c28 0 160 20 237
36 15 3 25 10 21 15 -6 10 -88 10 -182 -1z"/>
<path d="M3138 2313 c6 -2 18 -2 25 0 6 3 1 5 -13 5 -14 0 -19 -2 -12 -5z"/>
<path d="M4308 2303 c7 -3 16 -2 19 1 4 3 -2 6 -13 5 -11 0 -14 -3 -6 -6z"/>
<path d="M2935 2273 c-16 -2 -81 -13 -144 -24 -62 -10 -118 -19 -124 -19 -5 0
-4 -7 3 -15 10 -12 10 -15 0 -15 -8 0 -10 -3 -7 -6 4 -4 12 -2 20 4 7 6 37 14
67 18 30 4 60 10 65 15 6 4 53 15 105 24 52 9 97 18 99 21 5 5 -39 3 -84 -3z"/>
<path d="M2743 2188 c-15 -3 -41 -11 -58 -17 -29 -11 -28 -11 10 -6 170 22
200 27 203 30 7 6 -124 1 -155 -7z"/>
<path d="M2320 2163 c-19 -2 -55 -10 -80 -18 -25 -8 -54 -14 -65 -14 -232 6
-370 -9 -370 -41 0 -10 12 -16 32 -18 23 -2 30 -7 26 -18 -3 -9 1 -14 12 -14
9 0 13 5 10 10 -3 6 4 10 17 10 19 0 20 -2 8 -11 -11 -7 -2 -8 30 -3 25 4 51
7 58 7 7 0 10 7 7 17 -5 14 4 18 50 23 31 3 62 10 68 15 17 13 114 23 252 26
66 2 154 7 195 11 l75 9 -49 6 c-27 4 -74 2 -104 -3 -37 -6 -62 -6 -78 2 -14
6 -33 10 -42 9 -9 0 -33 -3 -52 -5z"/>
<path d="M2128 2153 c7 -3 16 -2 19 1 4 3 -2 6 -13 5 -11 0 -14 -3 -6 -6z"/>
<path d="M2058 2143 c7 -3 16 -2 19 1 4 3 -2 6 -13 5 -11 0 -14 -3 -6 -6z"/>
<path d="M439 2009 c-26 -33 -28 -39 -12 -30 18 9 59 71 48 71 -2 0 -18 -19
-36 -41z"/>
<path d="M814 1979 c-4 -8 1 -9 16 -4 17 5 21 4 15 -5 -5 -9 -4 -11 4 -6 6 4
9 12 6 17 -8 12 -32 11 -41 -2z"/>
<path d="M1290 1950 c0 -5 5 -10 10 -10 6 0 10 5 10 10 0 6 -4 10 -10 10 -5 0
-10 -4 -10 -10z"/>
<path d="M906 1941 c-3 -5 1 -11 9 -14 9 -4 12 -1 8 9 -6 16 -10 17 -17 5z"/>
<path d="M1080 1939 c0 -5 5 -7 10 -4 6 3 10 8 10 11 0 2 -4 4 -10 4 -5 0 -10
-5 -10 -11z"/>
<path d="M3255 1570 c-3 -5 1 -13 10 -16 22 -9 29 1 11 15 -10 8 -16 9 -21 1z"/>
<path d="M3230 1551 c0 -8 23 -18 62 -27 9 -2 20 1 23 7 11 16 -1 22 -23 10
-15 -8 -23 -7 -32 4 -14 17 -30 20 -30 6z"/>
<path d="M3950 1539 c0 -5 5 -7 10 -4 6 3 10 8 10 11 0 2 -4 4 -10 4 -5 0 -10
-5 -10 -11z"/>
<path d="M3878 1503 c7 -3 16 -2 19 1 4 3 -2 6 -13 5 -11 0 -14 -3 -6 -6z"/>
<path d="M3456 1482 c-2 -4 4 -8 15 -8 10 0 19 4 19 8 0 4 -6 8 -14 8 -8 0
-17 -4 -20 -8z"/>
<path d="M3505 1480 c3 -5 11 -10 16 -10 6 0 7 5 4 10 -3 6 -11 10 -16 10 -6
0 -7 -4 -4 -10z"/>
<path d="M3680 1479 c0 -11 29 -19 45 -13 25 10 17 19 -15 19 -16 0 -30 -3
-30 -6z"/>
<path d="M3245 1430 c-3 -6 1 -7 9 -4 18 7 21 14 7 14 -6 0 -13 -4 -16 -10z"/>
<path d="M4058 1423 c6 -2 18 -2 25 0 6 3 1 5 -13 5 -14 0 -19 -2 -12 -5z"/>
<path d="M3800 1410 c-11 -7 -6 -10 20 -10 26 0 31 3 20 10 -8 5 -17 10 -20
10 -3 0 -12 -5 -20 -10z"/>
<path d="M3723 1393 c9 -2 23 -2 30 0 6 3 -1 5 -18 5 -16 0 -22 -2 -12 -5z"/>
<path d="M4088 1393 c7 -3 16 -2 19 1 4 3 -2 6 -13 5 -11 0 -14 -3 -6 -6z"/>
<path d="M3489 1377 c5 -5 19 -7 32 -5 20 3 19 5 -9 9 -20 3 -29 2 -23 -4z"/>
<path d="M4288 1373 c7 -3 16 -2 19 1 4 3 -2 6 -13 5 -11 0 -14 -3 -6 -6z"/>
<path d="M4418 1373 c7 -3 16 -2 19 1 4 3 -2 6 -13 5 -11 0 -14 -3 -6 -6z"/>
<path d="M3246 1325 c-3 -8 -1 -15 4 -15 6 0 10 7 10 15 0 8 -2 15 -4 15 -2 0
-6 -7 -10 -15z"/>
<path d="M3620 1310 c0 -5 5 -10 11 -10 5 0 7 5 4 10 -3 6 -8 10 -11 10 -2 0
-4 -4 -4 -10z"/>
<path d="M3596 1291 c-4 -5 -2 -12 3 -15 5 -4 12 -2 15 3 4 5 2 12 -3 15 -5 4
-12 2 -15 -3z"/>
<path d="M4122 1277 c7 -7 22 -16 33 -20 17 -6 17 -4 -4 13 -26 22 -50 28 -29
7z"/>
<path d="M3218 1273 c7 -3 16 -2 19 1 4 3 -2 6 -13 5 -11 0 -14 -3 -6 -6z"/>
<path d="M3305 1270 c3 -5 10 -10 16 -10 5 0 9 5 9 10 0 6 -7 10 -16 10 -8 0
-12 -4 -9 -10z"/>
<path d="M3954 1245 c11 -8 27 -15 35 -15 10 1 7 6 -9 15 -33 19 -50 18 -26 0z"/>
<path d="M3915 1240 c3 -5 1 -10 -6 -10 -7 0 -10 -2 -7 -5 8 -9 38 6 32 16 -3
5 -10 9 -15 9 -6 0 -7 -4 -4 -10z"/>
<path d="M4228 1243 c12 -2 30 -2 40 0 9 3 -1 5 -23 4 -22 0 -30 -2 -17 -4z"/>
<path d="M5780 1210 c0 -11 5 -20 10 -20 6 0 10 9 10 20 0 11 -4 20 -10 20 -5
0 -10 -9 -10 -20z"/>
<path d="M4053 1206 c0 -18 24 -24 57 -16 24 6 24 6 -9 18 -43 15 -48 15 -48
-2z"/>
<path d="M5590 1184 c0 -15 26 -19 34 -5 3 5 -3 11 -14 14 -13 3 -20 0 -20 -9z"/>
<path d="M5405 1170 c3 -5 11 -10 16 -10 6 0 7 5 4 10 -3 6 -11 10 -16 10 -6
0 -7 -4 -4 -10z"/>
<path d="M4370 1160 c0 -6 8 -10 18 -11 11 -1 9 -4 -8 -9 -23 -7 -23 -8 -3 -9
12 -1 25 -6 29 -13 4 -7 3 -8 -4 -4 -7 4 -12 2 -12 -3 0 -6 5 -11 10 -11 6 0
10 -5 10 -10 0 -6 -11 -5 -27 3 -16 8 -46 17 -68 20 -39 6 -39 6 -15 -8 l25
-14 -25 -1 c-28 -2 -30 -1 68 -30 45 -14 72 -27 72 -36 0 -8 9 -14 20 -14 11
0 20 -6 20 -14 0 -9 12 -13 43 -11 23 1 47 -2 52 -6 6 -4 17 -4 25 2 13 8 13
10 0 19 -8 6 -26 13 -39 17 -39 10 -109 53 -87 53 15 0 16 3 6 15 -8 9 -9 15
-2 15 6 0 14 -4 17 -10 3 -5 20 -10 36 -10 18 0 28 -4 24 -10 -4 -6 8 -15 25
-22 24 -8 28 -13 18 -20 -8 -5 -2 -6 17 -2 42 9 43 13 7 20 -17 4 -30 11 -29
16 3 12 -16 23 -71 39 -35 10 -48 10 -64 0 -15 -9 -23 -10 -32 -1 -8 8 -7 10
7 5 10 -4 17 -2 17 4 0 6 -8 11 -17 11 -13 0 -14 3 -5 8 8 6 1 13 -23 25 -19
9 -35 12 -35 7z"/>
<path d="M5520 1162 c0 -10 44 -32 65 -32 8 0 15 5 15 10 0 7 7 7 21 0 11 -7
23 -9 27 -6 10 11 -8 20 -47 22 -21 1 -48 5 -60 9 -11 3 -21 2 -21 -3z"/>
<path d="M4170 1156 c0 -2 9 -6 20 -9 11 -3 20 -1 20 4 0 5 -9 9 -20 9 -11 0
-20 -2 -20 -4z"/>
<path d="M5350 1140 c0 -5 5 -10 11 -10 5 0 7 5 4 10 -3 6 -8 10 -11 10 -2 0
-4 -4 -4 -10z"/>
<path d="M4253 1133 c9 -2 23 -2 30 0 6 3 -1 5 -18 5 -16 0 -22 -2 -12 -5z"/>
<path d="M5520 1130 c0 -5 7 -10 16 -10 8 0 12 5 9 10 -3 6 -10 10 -16 10 -5
0 -9 -4 -9 -10z"/>
<path d="M4198 1119 c-8 -6 1 -9 25 -9 20 0 37 2 37 4 0 9 -50 12 -62 5z"/>
<path d="M5005 1120 c3 -5 15 -10 26 -10 11 0 17 5 14 10 -3 6 -15 10 -26 10
-11 0 -17 -4 -14 -10z"/>
<path d="M5390 1120 c0 -5 5 -10 10 -10 6 0 19 -9 31 -21 l21 -21 -48 5 c-27
2 -41 2 -31 0 9 -2 17 -9 17 -14 0 -5 11 -7 25 -3 14 3 25 2 24 -2 -3 -20 2
-34 12 -34 6 0 9 6 6 14 -3 7 1 23 9 35 16 22 10 26 -26 21 -8 -1 -12 1 -8 6
4 4 0 13 -10 20 -21 16 -32 17 -32 4z"/>
<path d="M5220 1086 c0 -18 19 -31 28 -21 4 4 1 10 -6 12 -6 3 -10 9 -6 14 3
5 0 9 -5 9 -6 0 -11 -6 -11 -14z"/>
<path d="M5308 1083 c6 -2 18 -2 25 0 6 3 1 5 -13 5 -14 0 -19 -2 -12 -5z"/>
<path d="M4616 1071 c14 -14 58 -25 50 -13 -3 6 0 13 6 15 7 3 -5 6 -26 6 -24
1 -36 -3 -30 -8z"/>
<path d="M4990 1055 c0 -13 4 -14 20 -5 11 6 20 13 20 15 0 3 -9 5 -20 5 -11
0 -20 -7 -20 -15z"/>
<path d="M4841 1044 c0 -11 3 -14 6 -6 3 7 2 16 -1 19 -3 4 -6 -2 -5 -13z"/>
<path d="M5305 1050 c3 -5 12 -10 20 -10 8 0 17 5 20 10 4 6 -5 10 -20 10 -15
0 -24 -4 -20 -10z"/>
<path d="M4688 1043 c7 -3 16 -2 19 1 4 3 -2 6 -13 5 -11 0 -14 -3 -6 -6z"/>
<path d="M4302 1025 c-11 -12 -10 -15 3 -15 8 0 15 6 15 13 0 8 3 7 10 -3 5
-8 12 -11 15 -8 9 9 -3 28 -18 28 -7 -1 -18 -7 -25 -15z"/>
<path d="M5150 1010 c-12 -8 -9 -10 13 -10 16 0 26 4 22 10 -8 12 -16 12 -35
0z"/>
<path d="M4146 985 c4 -8 10 -12 15 -9 14 8 10 24 -6 24 -9 0 -12 -6 -9 -15z"/>
<path d="M4260 980 c0 -5 7 -10 15 -10 8 0 15 -4 15 -10 0 -5 12 -10 26 -10
19 0 25 4 21 14 -3 8 -1 17 6 20 7 3 6 5 -3 5 -9 1 -22 -5 -29 -11 -11 -10
-14 -10 -18 0 -6 14 -33 16 -33 2z"/>
<path d="M4630 975 c-7 -8 -19 -15 -27 -15 -8 0 -11 -5 -8 -10 4 -7 13 -7 26
0 10 6 19 7 18 3 -5 -27 2 -45 16 -39 10 4 15 -1 15 -15 0 -17 5 -20 25 -17
14 3 28 1 31 -3 3 -5 12 -9 20 -9 10 0 9 5 -6 20 -11 11 -20 24 -20 29 0 14
38 1 44 -15 6 -16 76 -20 76 -4 0 5 -7 7 -15 4 -21 -9 -19 12 3 21 13 6 7 10
-23 15 -24 5 -45 4 -52 -2 -9 -7 -13 -7 -13 0 0 9 -39 28 -70 34 -8 2 -18 7
-21 11 -3 4 -12 1 -19 -8z m65 -75 c3 -5 1 -10 -4 -10 -6 0 -11 5 -11 10 0 6
2 10 4 10 3 0 8 -4 11 -10z"/>
<path d="M5109 979 c-11 -7 -9 -9 9 -9 12 0 22 -4 22 -10 0 -5 5 -10 10 -10
16 0 11 19 -8 29 -11 6 -24 6 -33 0z"/>
<path d="M4079 956 c14 -8 31 -12 38 -9 18 7 15 9 -27 16 -34 6 -34 6 -11 -7z"/>
<path d="M5068 963 c7 -3 16 -2 19 1 4 3 -2 6 -13 5 -11 0 -14 -3 -6 -6z"/>
<path d="M5242 950 c0 -14 2 -19 5 -12 2 6 2 18 0 25 -3 6 -5 1 -5 -13z"/>
<path d="M5305 960 c-4 -6 3 -10 14 -10 25 0 27 6 6 13 -8 4 -17 2 -20 -3z"/>
<path d="M4452 934 c-1 -15 4 -24 12 -24 9 0 13 -11 11 -35 -1 -25 3 -36 16
-40 10 -4 15 -12 12 -24 -6 -22 23 -36 31 -15 3 9 11 12 17 9 6 -4 9 0 7 11
-2 11 2 18 7 18 6 -1 29 -5 53 -9 43 -7 49 -2 32 25 -6 10 -10 11 -10 3 0 -7
-9 -13 -20 -13 -14 0 -18 5 -13 17 5 12 2 15 -10 10 -9 -3 -17 -2 -17 3 0 17
21 22 37 9 13 -11 15 -11 12 6 -3 14 -13 21 -34 23 -77 6 -115 14 -110 22 3 5
-3 13 -13 19 -15 8 -18 5 -20 -15z m28 2 c0 -3 -4 -8 -10 -11 -5 -3 -10 -1
-10 4 0 6 5 11 10 11 6 0 10 -2 10 -4z m88 -78 c-6 -18 -38 -22 -52 -7 -8 9
-7 11 7 6 9 -4 17 -2 17 3 0 6 7 10 16 10 9 0 14 -6 12 -12z"/>
<path d="M5185 950 c-19 -8 -19 -9 3 -9 12 -1 22 4 22 9 0 6 -1 10 -2 9 -2 0
-12 -4 -23 -9z"/>
<path d="M4335 940 c-3 -5 1 -10 9 -10 8 0 18 5 21 10 3 6 -1 10 -9 10 -8 0
-18 -4 -21 -10z"/>
<path d="M5028 936 c-13 -10 -15 -15 -6 -24 16 -16 33 -15 48 3 9 10 9 15 1
15 -6 0 -11 -4 -11 -10 0 -5 -7 -10 -15 -10 -13 0 -14 4 -5 20 12 23 11 24
-12 6z"/>
<path d="M4156 928 c3 -4 11 -5 19 -1 21 7 19 12 -4 10 -11 0 -18 -5 -15 -9z"/>
<path d="M4369 929 c-12 -8 -12 -10 1 -19 8 -5 21 -8 28 -5 6 2 12 0 12 -5 0
-6 5 -10 10 -10 18 0 11 17 -13 33 -16 10 -29 12 -38 6z"/>
<path d="M4025 920 c3 -5 8 -10 11 -10 2 0 4 5 4 10 0 6 -5 10 -11 10 -5 0 -7
-4 -4 -10z"/>
<path d="M4217 907 c-25 -31 -20 -44 15 -38 4 0 5 -5 2 -13 -3 -8 -1 -17 5
-21 6 -3 11 -2 11 2 0 5 14 8 32 8 47 0 49 25 1 26 -33 1 -35 2 -13 9 l25 7
-27 8 c-16 4 -26 11 -23 15 12 19 -12 17 -28 -3z"/>
<path d="M5110 920 c0 -5 5 -10 11 -10 5 0 7 5 4 10 -3 6 -8 10 -11 10 -2 0
-4 -4 -4 -10z"/>
<path d="M5255 921 c-36 -4 -55 -9 -47 -14 6 -5 16 -6 22 -2 5 3 18 0 29 -7
15 -9 17 -15 9 -26 -9 -10 -8 -12 3 -10 9 2 13 -4 11 -14 -3 -21 2 -22 29 -7
20 10 20 11 2 24 -17 13 -17 14 0 32 18 21 22 34 10 31 -5 -1 -35 -4 -68 -7z"/>
<path d="M4865 898 c-9 -23 -3 -39 11 -30 7 4 8 15 4 27 -7 18 -9 18 -15 3z"/>
<path d="M5100 881 c0 -5 14 -14 31 -20 42 -14 42 -14 22 9 -18 20 -53 28 -53
11z"/>
<path d="M4355 869 c-4 -6 -5 -12 -2 -15 2 -3 7 2 10 11 7 17 1 20 -8 4z"/>
<path d="M4430 870 c0 -5 4 -10 9 -10 6 0 13 5 16 10 3 6 -1 10 -9 10 -9 0
-16 -4 -16 -10z"/>
<path d="M4800 869 c11 -8 12 -12 3 -16 -10 -3 -9 -8 2 -19 8 -8 12 -21 9 -29
-4 -10 0 -12 15 -8 12 3 21 10 21 15 0 5 -4 6 -10 3 -5 -3 -10 -1 -10 4 0 23
33 6 43 -21 3 -10 10 -18 15 -18 4 0 8 8 8 18 1 9 4 24 8 33 6 14 2 16 -27 14
-25 -3 -40 2 -53 16 -9 10 -22 19 -28 19 -6 0 -4 -5 4 -11z"/>
<path d="M4104 822 c2 -15 10 -28 20 -30 9 -2 16 -8 16 -13 0 -5 5 -9 10 -9 6
0 10 9 10 20 0 11 -3 19 -7 19 -18 -3 -34 2 -30 9 3 4 -1 13 -8 19 -11 10 -13
7 -11 -15z"/>
<path d="M3995 830 c3 -5 13 -10 21 -10 8 0 14 5 14 10 0 6 -9 10 -21 10 -11
0 -17 -4 -14 -10z"/>
<path d="M4705 829 c-10 -15 3 -25 16 -12 7 7 7 13 1 17 -6 3 -14 1 -17 -5z"/>
<path d="M4293 815 c2 -23 34 -62 43 -52 3 3 1 12 -5 19 -7 7 -18 22 -26 33
l-14 20 2 -20z"/>
<path d="M4390 818 c0 -7 12 -10 65 -12 11 0 20 4 20 8 0 5 -19 10 -42 11 -24
1 -43 -2 -43 -7z"/>
<path d="M4932 823 c-6 -2 -10 -9 -6 -14 3 -5 0 -9 -5 -9 -6 0 -11 -4 -11 -10
0 -5 9 -10 20 -10 11 0 20 -4 20 -9 0 -4 11 -6 25 -3 14 2 25 8 25 12 0 5 8
11 18 14 9 3 -4 4 -30 3 -42 -2 -47 0 -42 15 3 10 4 18 2 17 -2 0 -9 -3 -16
-6z"/>
<path d="M4355 800 c-3 -5 -1 -10 5 -10 6 0 8 -4 5 -10 -8 -13 6 -13 25 0 13
9 13 11 0 20 -19 12 -27 12 -35 0z"/>
<path d="M4564 795 c-4 -9 -2 -21 3 -26 7 -7 12 -3 16 10 6 25 -11 39 -19 16z"/>
<path d="M4735 800 c-4 -6 -10 -8 -14 -6 -4 3 -8 -2 -8 -10 0 -8 6 -13 14 -10
7 3 13 -1 13 -9 0 -8 5 -15 10 -15 6 0 10 -7 10 -15 0 -8 7 -15 15 -15 7 0 18
-7 23 -16 8 -15 10 -14 16 2 6 14 9 16 15 5 6 -9 11 -10 15 -2 4 6 -4 13 -19
17 -14 3 -25 10 -25 16 0 5 -4 7 -10 3 -14 -8 -53 34 -46 51 6 16 0 19 -9 4z"/>
<path d="M3913 785 c0 -8 4 -15 9 -15 4 0 8 4 8 9 0 6 -4 12 -8 15 -5 3 -9 -1
-9 -9z"/>
<path d="M4410 791 c0 -10 19 -25 25 -20 1 2 -3 10 -11 17 -8 7 -14 8 -14 3z"/>
<path d="M4627 793 c-13 -12 -7 -33 8 -33 8 0 15 9 15 20 0 20 -11 26 -23 13z"/>
<path d="M3946 773 c-6 -14 -5 -15 5 -6 7 7 10 15 7 18 -3 3 -9 -2 -12 -12z"/>
<path d="M4170 762 c0 -6 9 -12 20 -15 11 -3 20 -3 20 -1 0 2 -9 8 -20 14 -11
6 -20 7 -20 2z"/>
<path d="M4920 750 c0 -5 5 -10 11 -10 5 0 7 5 4 10 -3 6 -8 10 -11 10 -2 0
-4 -4 -4 -10z"/>
<path d="M4638 723 c-4 -16 -1 -20 18 -20 13 0 24 4 24 10 0 6 -3 7 -7 4 -3
-4 -11 1 -18 10 -11 14 -12 14 -17 -4z"/>
<path d="M4362 703 c-19 -22 -19 -23 -2 -23 10 0 21 8 23 18 3 10 5 6 6 -10 0
-16 6 -28 12 -28 5 0 7 5 3 11 -5 9 3 10 30 5 29 -6 36 -4 36 9 0 8 8 15 18
16 14 0 14 2 -3 8 -11 5 -26 6 -33 3 -7 -2 -18 0 -25 6 -20 15 -42 10 -65 -15z"/>
<path d="M4528 723 c7 -3 16 -2 19 1 4 3 -2 6 -13 5 -11 0 -14 -3 -6 -6z"/>
<path d="M4933 710 c-3 -12 -14 -20 -27 -20 -17 0 -18 2 -6 10 10 7 11 10 2
10 -7 0 -15 -6 -18 -14 -3 -9 -12 -12 -21 -9 -11 4 -14 2 -9 -5 4 -7 14 -12
22 -12 8 0 14 -6 14 -12 0 -7 5 -5 11 5 5 9 19 17 30 17 12 0 17 4 13 11 -4 7
1 7 16 -1 12 -6 24 -9 28 -6 3 3 -1 6 -8 6 -7 0 -11 3 -7 6 6 7 -16 34 -28 34
-4 0 -9 -9 -12 -20z"/>
<path d="M3830 711 c0 -11 31 -24 39 -16 3 3 -1 10 -9 15 -19 12 -30 12 -30 1z"/>
<path d="M4570 709 c0 -5 5 -7 10 -4 6 3 10 8 10 11 0 2 -4 4 -10 4 -5 0 -10
-5 -10 -11z"/>
<path d="M4178 683 c7 -3 16 -2 19 1 4 3 -2 6 -13 5 -11 0 -14 -3 -6 -6z"/>
<path d="M4610 680 c0 -5 6 -10 14 -10 8 0 18 5 21 10 3 6 -3 10 -14 10 -12 0
-21 -4 -21 -10z"/>
<path d="M4817 663 c4 -11 3 -14 -5 -9 -19 11 -14 -9 6 -26 12 -11 24 -13 40
-7 27 10 22 23 -18 44 -27 14 -29 14 -23 -2z"/>
<path d="M3880 656 c0 -9 5 -16 10 -16 6 0 10 4 10 9 0 6 -4 13 -10 16 -5 3
-10 -1 -10 -9z"/>
<path d="M3910 666 c0 -2 7 -7 16 -10 8 -3 12 -2 9 4 -6 10 -25 14 -25 6z"/>
<path d="M3947 643 c-13 -12 -7 -19 18 -21 13 -1 27 3 31 9 4 8 -1 9 -16 4
-15 -5 -20 -4 -16 4 8 12 -6 15 -17 4z"/>
<path d="M4540 640 c0 -5 -10 -20 -22 -32 -17 -17 -18 -20 -4 -15 10 4 20 7
22 7 2 0 4 7 4 16 0 8 4 12 10 9 6 -3 7 1 4 9 -7 18 -14 21 -14 6z"/>
<path d="M4609 643 c-11 -3 -15 -11 -12 -24 4 -15 8 -17 19 -8 8 6 14 8 14 3
0 -5 4 -2 9 6 10 14 6 31 -7 29 -4 -1 -14 -3 -23 -6z"/>
<path d="M3765 610 c4 -6 11 -8 16 -5 14 9 11 15 -7 15 -8 0 -12 -5 -9 -10z"/>
<path d="M4325 610 c3 -5 13 -10 21 -10 8 0 14 -5 14 -11 0 -6 -6 -9 -14 -6
-11 5 -11 0 2 -24 9 -16 22 -27 27 -25 16 6 45 -13 40 -27 -5 -11 45 -47 64
-47 14 0 7 66 -8 84 -13 15 -14 15 -26 0 -12 -17 -35 -12 -35 7 0 13 -62 68
-78 69 -7 0 -10 -4 -7 -10z m148 -95 c-7 -21 -12 -19 -10 4 0 11 5 18 9 15 4
-3 5 -11 1 -19z"/>
<path d="M4620 605 c0 -10 39 -43 44 -38 3 3 -4 14 -16 24 -22 20 -28 23 -28
14z"/>
<path d="M4046 564 c-8 -22 -7 -51 2 -39 4 6 19 10 33 10 23 -1 24 1 15 22 -6
12 -13 18 -14 12 -3 -6 -8 -6 -17 1 -9 8 -14 6 -19 -6z"/>
<path d="M3996 531 c-3 -5 0 -11 8 -14 15 -6 26 1 26 15 0 11 -27 10 -34 -1z"/>
<path d="M4215 510 c-3 -5 -1 -10 4 -10 6 0 11 5 11 10 0 6 -2 10 -4 10 -3 0
-8 -4 -11 -10z"/>
<path d="M4520 514 c0 -3 5 -14 10 -25 8 -14 8 -19 -1 -17 -26 6 -18 -21 11
-35 l30 -15 -6 31 c-4 18 -7 40 -8 50 0 15 -36 26 -36 11z"/>
<path d="M4720 494 c0 -16 18 -18 38 -5 10 6 7 10 -12 13 -18 4 -26 1 -26 -8z"/>
<path d="M4180 495 c-1 -5 -2 -13 -1 -17 0 -5 -3 -8 -9 -8 -5 0 -10 -5 -10
-12 0 -8 6 -7 16 4 9 9 14 22 11 30 -3 7 -6 9 -7 3z"/>
<path d="M4610 490 c-12 -8 -12 -10 -1 -10 9 0 7 -6 -7 -19 -12 -10 -22 -20
-22 -23 0 -3 22 -4 49 -2 26 1 54 -1 60 -6 7 -4 23 -5 36 -2 21 4 23 7 14 24
-10 19 -11 19 -24 1 -7 -10 -17 -15 -21 -10 -4 4 -2 7 5 7 8 0 7 6 -5 17 -15
16 -17 16 -29 0 -17 -23 -27 -21 -23 5 3 24 -10 32 -32 18z"/>
<path d="M4241 472 c-1 -7 -5 -11 -10 -8 -5 3 -14 0 -20 -8 -9 -10 -7 -16 4
-26 13 -11 13 -15 3 -23 -10 -6 -9 -7 4 -4 9 3 19 1 21 -6 11 -30 18 6 9 45
-5 23 -10 37 -11 30z m5 -49 c-7 -7 -26 7 -26 19 0 6 6 6 15 -2 9 -7 13 -15
11 -17z"/>
<path d="M3790 446 c0 -2 9 -6 20 -9 11 -3 18 -1 14 4 -5 9 -34 13 -34 5z"/>
<path d="M4270 415 c0 -9 9 -25 20 -37 17 -19 20 -19 26 -5 3 10 4 24 1 31 -4
10 -1 13 9 9 7 -3 14 0 14 6 0 6 -16 11 -35 11 -25 0 -35 -4 -35 -15z"/>
<path d="M4353 409 c4 -13 7 -30 7 -38 0 -11 3 -11 15 -1 21 18 19 37 -6 51
-20 10 -21 9 -16 -12z"/>
<path d="M4771 422 c-1 -8 -6 -10 -13 -6 -7 4 -4 -2 6 -14 23 -27 30 -23 17 9
-5 13 -10 18 -10 11z"/>
<path d="M4510 413 c0 -21 20 -65 42 -92 12 -15 18 -18 15 -8 -4 11 -1 17 9
17 8 0 12 -5 9 -10 -4 -6 1 -22 10 -37 9 -14 12 -22 6 -19 -18 12 -13 -26 6
-39 14 -11 20 -10 30 4 7 9 13 24 13 34 0 9 4 17 10 17 11 0 9 -28 -3 -47 -5
-8 -3 -13 3 -13 6 0 8 -5 4 -11 -4 -8 1 -9 17 -5 13 3 18 3 12 0 -7 -3 -13
-15 -13 -26 0 -17 2 -18 15 -8 9 7 19 9 23 5 4 -4 1 -10 -5 -12 -7 -3 -13 -12
-13 -21 0 -10 -3 -13 -8 -7 -4 6 -11 11 -17 12 -5 1 -17 4 -25 7 -10 4 -22 -5
-35 -24 -21 -32 -35 -38 -35 -17 0 7 -11 14 -25 15 -14 1 -25 -3 -25 -8 0 -6
4 -10 8 -10 5 0 9 -14 9 -30 0 -23 -4 -29 -15 -25 -13 5 -13 3 -1 -11 12 -14
14 -14 26 2 7 10 13 21 13 25 0 11 39 18 46 8 3 -5 0 -9 -5 -9 -6 0 -11 -4
-11 -10 0 -5 9 -10 21 -10 14 0 19 -5 16 -14 -10 -26 6 -26 19 0 15 28 9 48
-11 40 -7 -2 -15 4 -18 15 -3 10 -1 19 4 19 5 0 9 7 9 15 0 18 7 19 24 3 7 -7
11 -20 8 -30 -2 -11 1 -18 9 -18 25 0 36 14 35 43 -2 31 -2 31 25 16 19 -9 19
-9 7 13 -7 13 -19 31 -27 41 -10 11 -10 17 -3 17 7 0 12 4 12 10 0 5 -7 6 -17
3 -10 -4 -14 -2 -9 5 3 6 -2 15 -11 21 -11 6 -13 11 -5 11 8 0 10 5 6 12 -5 7
-2 9 9 5 11 -4 14 -2 10 8 -3 8 -8 13 -13 10 -4 -2 -5 7 -2 20 4 21 1 25 -22
25 -14 0 -26 -6 -26 -12 0 -7 -9 -2 -19 11 -14 18 -20 21 -25 10 -5 -11 -7
-11 -12 -1 -3 6 -19 12 -35 12 -21 0 -29 5 -29 18 0 19 -20 54 -20 35z m130
-124 c0 -6 -4 -7 -10 -4 -5 3 -10 11 -10 16 0 6 5 7 10 4 6 -3 10 -11 10 -16z"/>
<path d="M3725 399 c-4 -6 -5 -12 -2 -15 2 -3 7 2 10 11 7 17 1 20 -8 4z"/>
<path d="M3811 401 c-10 -6 -9 -10 3 -14 8 -3 18 -2 21 3 8 13 -9 20 -24 11z"/>
<path d="M4570 401 c0 -5 5 -13 10 -16 6 -3 10 -2 10 4 0 5 -4 13 -10 16 -5 3
-10 2 -10 -4z"/>
<path d="M4710 394 c-11 -13 -11 -17 -1 -24 8 -4 10 -13 7 -19 -4 -6 -1 -11 8
-11 9 0 13 6 10 14 -3 8 2 16 11 18 15 3 15 5 -2 21 -18 16 -21 16 -33 1z"/>
<path d="M3860 376 c0 -7 8 -16 19 -19 14 -3 17 0 14 14 -6 22 -33 26 -33 5z"/>
<path d="M4076 365 c-3 -9 0 -15 9 -15 9 0 12 6 9 15 -4 8 -7 15 -9 15 -2 0
-5 -7 -9 -15z"/>
<path d="M4427 374 c-8 -8 1 -24 14 -24 5 0 9 7 9 15 0 15 -12 20 -23 9z"/>
<path d="M3810 360 c-13 -8 -13 -10 2 -10 9 0 20 5 23 10 8 13 -5 13 -25 0z"/>
<path d="M4363 353 c-18 -6 -16 -26 4 -60 16 -29 17 -29 36 -10 18 18 18 19 0
39 -10 11 -17 23 -15 26 5 9 -10 12 -25 5z m22 -43 c3 -5 2 -10 -4 -10 -5 0
-13 5 -16 10 -3 6 -2 10 4 10 5 0 13 -4 16 -10z"/>
<path d="M3885 330 c-3 -5 -1 -10 5 -10 17 0 6 -48 -15 -63 -24 -18 -14 -43
21 -50 20 -3 32 1 45 17 21 24 24 42 9 51 -5 3 -10 -1 -10 -9 0 -9 -7 -16 -15
-16 -18 0 -20 31 -2 49 10 11 10 13 0 7 -8 -4 -13 -1 -13 8 0 19 -17 30 -25
16z"/>
<path d="M3941 324 c0 -11 3 -14 6 -6 3 7 2 16 -1 19 -3 4 -6 -2 -5 -13z"/>
<path d="M4115 330 c-3 -6 1 -7 9 -4 18 7 21 14 7 14 -6 0 -13 -4 -16 -10z"/>
<path d="M3970 312 c0 -5 10 -18 23 -30 17 -16 26 -19 35 -10 8 8 5 16 -13 29
-24 20 -45 25 -45 11z"/>
<path d="M4400 236 c0 -9 8 -16 19 -16 11 0 22 -6 24 -12 3 -7 6 -3 6 10 1 12
-3 22 -8 22 -5 0 -16 3 -25 6 -11 4 -16 1 -16 -10z"/>
<path d="M4910 230 c0 -5 5 -10 11 -10 5 0 7 5 4 10 -3 6 -8 10 -11 10 -2 0
-4 -4 -4 -10z"/>
<path d="M4552 223 c-6 -3 -9 -10 -5 -16 4 -7 8 -16 8 -22 0 -13 53 -31 62
-20 5 4 2 10 -4 12 -7 3 -13 10 -13 16 0 16 -31 35 -48 30z m38 -27 c0 -3 -4
-8 -10 -11 -5 -3 -10 -1 -10 4 0 6 5 11 10 11 6 0 10 -2 10 -4z"/>
<path d="M4386 175 c4 -8 8 -15 10 -15 2 0 4 7 4 15 0 8 -4 15 -10 15 -5 0 -7
-7 -4 -15z"/>
<path d="M4470 166 c0 -15 24 -28 34 -19 5 6 -18 33 -28 33 -3 0 -6 -6 -6 -14z"/>
<path d="M1413 103 c9 -2 23 -2 30 0 6 3 -1 5 -18 5 -16 0 -22 -2 -12 -5z"/>
<path d="M4695 70 c-3 -5 -1 -10 4 -10 6 0 11 5 11 10 0 6 -2 10 -4 10 -3 0
-8 -4 -11 -10z"/>
<path d="M1358 53 c7 -3 16 -2 19 1 4 3 -2 6 -13 5 -11 0 -14 -3 -6 -6z"/>
<path d="M1428 43 c6 -2 18 -2 25 0 6 3 1 5 -13 5 -14 0 -19 -2 -12 -5z"/>
<path d="M4393 19 c-2 -20 2 -22 30 -10 17 6 17 8 -5 18 -21 9 -24 8 -25 -8z"/>
<path d="M4540 10 c0 -5 9 -10 20 -10 11 0 20 5 20 10 0 6 -9 10 -20 10 -11 0
-20 -4 -20 -10z"/>
<path d="M1323 3 c9 -2 23 -2 30 0 6 3 -1 5 -18 5 -16 0 -22 -2 -12 -5z"/>
</g>
</svg>
